<svg xmlns="http://www.w3.org/2000/svg" width="642" height="510" viewBox="0 0 642 510" font-family="Helvetica, Arial, sans-serif">
<defs><marker id="arrow-in" markerWidth="7" markerHeight="7" refX="6" refY="3" orient="auto"><path d="M0,0 L6,3 L0,6 Z" fill="#3a7ca5"/></marker><marker id="arrow-out" markerWidth="7" markerHeight="7" refX="6" refY="3" orient="auto"><path d="M0,0 L6,3 L0,6 Z" fill="#c65b34"/></marker></defs>
<rect x="0" y="0" width="642" height="510" fill="#ffffff"/>
<text x="14" y="30" font-family="Helvetica, Arial, sans-serif" font-size="15" font-weight="700" fill="#233">fig04b-cellular-interface</text>
<text x="14" y="44" font-family="Helvetica, Arial, sans-serif" font-size="10" fill="#6b7785">Fig 4b · the minimal cellular interface (physical + cellular ports)</text>
<path d="M306.0,95.0 C338.8,95.0 191.2,186.5 224.0,186.5" fill="none" stroke="#3a7ca5" stroke-width="1.3" stroke-dasharray="4 3" opacity="0.85" marker-end="url(#arrow-in)"/>
<path d="M306.0,135.0 C338.8,135.0 191.2,203.5 224.0,203.5" fill="none" stroke="#3a7ca5" stroke-width="1.3" stroke-dasharray="4 3" opacity="0.85" marker-end="url(#arrow-in)"/>
<path d="M306.0,175.0 C338.8,175.0 191.2,220.5 224.0,220.5" fill="none" stroke="#3a7ca5" stroke-width="1.3" stroke-dasharray="4 3" opacity="0.85" marker-end="url(#arrow-in)"/>
<path d="M306.0,215.0 C338.8,215.0 191.2,237.5 224.0,237.5" fill="none" stroke="#3a7ca5" stroke-width="1.3" stroke-dasharray="4 3" opacity="0.85" marker-end="url(#arrow-in)"/>
<path d="M224.0,254.5 C256.8,254.5 273.2,299.0 306.0,299.0" fill="none" stroke="#c65b34" stroke-width="1.3" stroke-dasharray="4 3" opacity="0.85" marker-end="url(#arrow-out)"/>
<path d="M224.0,271.5 C320.8,271.5 369.2,299.0 466.0,299.0" fill="none" stroke="#c65b34" stroke-width="1.3" stroke-dasharray="4 3" opacity="0.85" marker-end="url(#arrow-out)"/>
<path d="M224.0,288.5 C256.8,288.5 273.2,339.0 306.0,339.0" fill="none" stroke="#c65b34" stroke-width="1.3" stroke-dasharray="4 3" opacity="0.85" marker-end="url(#arrow-out)"/>
<path d="M224.0,305.5 C320.8,305.5 369.2,339.0 466.0,339.0" fill="none" stroke="#c65b34" stroke-width="1.3" stroke-dasharray="4 3" opacity="0.85" marker-end="url(#arrow-out)"/>
<path d="M224.0,322.5 C256.8,322.5 273.2,379.0 306.0,379.0" fill="none" stroke="#c65b34" stroke-width="1.3" stroke-dasharray="4 3" opacity="0.85" marker-end="url(#arrow-out)"/>
<path d="M224.0,339.5 C320.8,339.5 369.2,379.0 466.0,379.0" fill="none" stroke="#c65b34" stroke-width="1.3" stroke-dasharray="4 3" opacity="0.85" marker-end="url(#arrow-out)"/>
<path d="M224.0,356.5 C256.8,356.5 273.2,419.0 306.0,419.0" fill="none" stroke="#c65b34" stroke-width="1.3" stroke-dasharray="4 3" opacity="0.85" marker-end="url(#arrow-out)"/>
<path d="M224.0,373.5 C320.8,373.5 369.2,419.0 466.0,419.0" fill="none" stroke="#c65b34" stroke-width="1.3" stroke-dasharray="4 3" opacity="0.85" marker-end="url(#arrow-out)"/>
<path d="M224.0,390.5 C256.8,390.5 273.2,459.0 306.0,459.0" fill="none" stroke="#c65b34" stroke-width="1.3" stroke-dasharray="4 3" opacity="0.85" marker-end="url(#arrow-out)"/>
<rect x="294.0" y="48.0" width="174.0" height="194.0" rx="12" fill="#eef5fb" stroke="#b9d4e8" stroke-width="1.3"/>
<text x="306.0" y="62.0" font-family="Helvetica, Arial, sans-serif" font-size="11.5" font-weight="600" fill="#233" letter-spacing="0.3">ENVIRONMENT</text>
<rect x="306.0" y="80.0" width="150.0" height="30.0" rx="8" fill="#ffffff" stroke="#2a9d8f" stroke-width="1.3"/>
<circle cx="318" cy="93.0" r="2.4" fill="#2a9d8f"/><circle cx="324" cy="92.0" r="1.8" fill="#2a9d8f"/><circle cx="321" cy="98.0" r="2.1" fill="#2a9d8f"/>
<text x="334.0" y="93.0" font-family="Helvetica, Arial, sans-serif" font-size="10.5" font-weight="600" fill="#233">chemical</text>
<text x="334.0" y="104.0" font-family="Helvetica, Arial, sans-serif" font-size="8.5" fill="#6b7785">mol·L⁻¹</text>
<rect x="306.0" y="120.0" width="150.0" height="30.0" rx="8" fill="#ffffff" stroke="#e8863c" stroke-width="1.3"/>
<path d="M316,135.0 L324,135.0 M321,131.0 L325,135.0 L321,139.0" stroke="#e8863c" stroke-width="2.2" fill="none" stroke-linecap="round" stroke-linejoin="round"/>
<text x="334.0" y="133.0" font-family="Helvetica, Arial, sans-serif" font-size="10.5" font-weight="600" fill="#233">mechanical</text>
<text x="334.0" y="144.0" font-family="Helvetica, Arial, sans-serif" font-size="8.5" fill="#6b7785">kg·m·s⁻² (N)</text>
<rect x="306.0" y="160.0" width="150.0" height="30.0" rx="8" fill="#ffffff" stroke="#8e6bb0" stroke-width="1.3"/>
<path d="M322,170.0 L317,176.0 L321,176.0 L320,180.0 L325,174.0 L321,174.0 Z" fill="#8e6bb0"/>
<text x="334.0" y="173.0" font-family="Helvetica, Arial, sans-serif" font-size="10.5" font-weight="600" fill="#233">electrical</text>
<text x="334.0" y="184.0" font-family="Helvetica, Arial, sans-serif" font-size="8.5" fill="#6b7785">V</text>
<rect x="306.0" y="200.0" width="150.0" height="30.0" rx="8" fill="#ffffff" stroke="#d1495b" stroke-width="1.3"/>
<path d="M321,210.0 L322.4,213.6 L326,215.0 L322.4,216.4 L321,220.0 L319.6,216.4 L316,215.0 L319.6,213.6 Z" fill="#d1495b"/>
<text x="334.0" y="213.0" font-family="Helvetica, Arial, sans-serif" font-size="10.5" font-weight="600" fill="#233">thermal</text>
<text x="334.0" y="224.0" font-family="Helvetica, Arial, sans-serif" font-size="8.5" fill="#6b7785">°C</text>
<rect x="294.0" y="252.0" width="334.0" height="234.0" rx="12" fill="#f2f4f7" stroke="#cfd7e0" stroke-width="1.3"/>
<text x="306.0" y="266.0" font-family="Helvetica, Arial, sans-serif" font-size="11.5" font-weight="600" fill="#233" letter-spacing="0.3">INTERFACE</text>
<rect x="306.0" y="284.0" width="150.0" height="30.0" rx="8" fill="#ffffff" stroke="#2a9d8f" stroke-width="1.3"/>
<circle cx="318" cy="297.0" r="2.4" fill="#2a9d8f"/><circle cx="324" cy="296.0" r="1.8" fill="#2a9d8f"/><circle cx="321" cy="302.0" r="2.1" fill="#2a9d8f"/>
<text x="334.0" y="297.0" font-family="Helvetica, Arial, sans-serif" font-size="10.5" font-weight="600" fill="#233">chemical</text>
<text x="334.0" y="308.0" font-family="Helvetica, Arial, sans-serif" font-size="8.5" fill="#6b7785">mol·s⁻¹</text>
<rect x="466.0" y="284.0" width="150.0" height="30.0" rx="8" fill="#ffffff" stroke="#e8863c" stroke-width="1.3"/>
<path d="M476,299.0 L484,299.0 M481,295.0 L485,299.0 L481,303.0" stroke="#e8863c" stroke-width="2.2" fill="none" stroke-linecap="round" stroke-linejoin="round"/>
<text x="494.0" y="297.0" font-family="Helvetica, Arial, sans-serif" font-size="10.5" font-weight="600" fill="#233">mechanical</text>
<text x="494.0" y="308.0" font-family="Helvetica, Arial, sans-serif" font-size="8.5" fill="#6b7785">kg·m·s⁻² (N)</text>
<rect x="306.0" y="324.0" width="150.0" height="30.0" rx="8" fill="#ffffff" stroke="#8e6bb0" stroke-width="1.3"/>
<path d="M322,334.0 L317,340.0 L321,340.0 L320,344.0 L325,338.0 L321,338.0 Z" fill="#8e6bb0"/>
<text x="334.0" y="337.0" font-family="Helvetica, Arial, sans-serif" font-size="10.5" font-weight="600" fill="#233">electrical</text>
<text x="334.0" y="348.0" font-family="Helvetica, Arial, sans-serif" font-size="8.5" fill="#6b7785">C·s⁻¹ (A)</text>
<rect x="466.0" y="324.0" width="150.0" height="30.0" rx="8" fill="#ffffff" stroke="#d1495b" stroke-width="1.3"/>
<path d="M481,334.0 L482.4,337.6 L486,339.0 L482.4,340.4 L481,344.0 L479.6,340.4 L476,339.0 L479.6,337.6 Z" fill="#d1495b"/>
<text x="494.0" y="337.0" font-family="Helvetica, Arial, sans-serif" font-size="10.5" font-weight="600" fill="#233">thermal</text>
<text x="494.0" y="348.0" font-family="Helvetica, Arial, sans-serif" font-size="8.5" fill="#6b7785">J·s⁻¹ (W)</text>
<rect x="306.0" y="364.0" width="150.0" height="30.0" rx="8" fill="#ffffff" stroke="#4c956c" stroke-width="1.3"/>
<path d="M321,384.0 L321,374.0 M318,378.0 L321,374.0 L324,378.0" stroke="#4c956c" stroke-width="2" fill="none" stroke-linecap="round" stroke-linejoin="round"/>
<text x="334.0" y="377.0" font-family="Helvetica, Arial, sans-serif" font-size="10.5" font-weight="600" fill="#233">growth rate</text>
<text x="334.0" y="388.0" font-family="Helvetica, Arial, sans-serif" font-size="8.5" fill="#6b7785">hr⁻¹</text>
<rect x="466.0" y="364.0" width="150.0" height="30.0" rx="8" fill="#ffffff" stroke="#e8863c" stroke-width="1.3"/>
<path d="M476,379.0 L484,379.0 M481,375.0 L485,379.0 L481,383.0" stroke="#e8863c" stroke-width="2.2" fill="none" stroke-linecap="round" stroke-linejoin="round"/>
<text x="494.0" y="377.0" font-family="Helvetica, Arial, sans-serif" font-size="10.5" font-weight="600" fill="#233">shape</text>
<text x="494.0" y="388.0" font-family="Helvetica, Arial, sans-serif" font-size="8.5" fill="#6b7785">m³</text>
<rect x="306.0" y="404.0" width="150.0" height="30.0" rx="8" fill="#ffffff" stroke="#5a7d9a" stroke-width="1.3"/>
<path d="M316,421.0 q2.5,-7 5,0 q2.5,7 5,0" stroke="#5a7d9a" stroke-width="1.8" fill="none" stroke-linecap="round"/>
<text x="334.0" y="417.0" font-family="Helvetica, Arial, sans-serif" font-size="10.5" font-weight="600" fill="#233">signaling</text>
<text x="334.0" y="428.0" font-family="Helvetica, Arial, sans-serif" font-size="8.5" fill="#6b7785">bits·s⁻¹</text>
<rect x="466.0" y="404.0" width="150.0" height="30.0" rx="8" fill="#ffffff" stroke="#4c956c" stroke-width="1.3"/>
<path d="M481,424.0 L481,414.0 M478,418.0 L481,414.0 L484,418.0" stroke="#4c956c" stroke-width="2" fill="none" stroke-linecap="round" stroke-linejoin="round"/>
<text x="494.0" y="417.0" font-family="Helvetica, Arial, sans-serif" font-size="10.5" font-weight="600" fill="#233">objective</text>
<text x="494.0" y="428.0" font-family="Helvetica, Arial, sans-serif" font-size="8.5" fill="#6b7785">dimensionless</text>
<rect x="306.0" y="444.0" width="150.0" height="30.0" rx="8" fill="#ffffff" stroke="#4c956c" stroke-width="1.3"/>
<path d="M321,464.0 L321,454.0 M318,458.0 L321,454.0 L324,458.0" stroke="#4c956c" stroke-width="2" fill="none" stroke-linecap="round" stroke-linejoin="round"/>
<text x="334.0" y="457.0" font-family="Helvetica, Arial, sans-serif" font-size="10.5" font-weight="600" fill="#233">viability</text>
<text x="334.0" y="468.0" font-family="Helvetica, Arial, sans-serif" font-size="8.5" fill="#6b7785">0–1 (in-bounds fraction)</text>
<rect x="14.0" y="138.5" width="210.0" height="267.0" rx="7" fill="#ffffff" stroke="#33404d" stroke-width="1.7"/>
<rect x="14.0" y="138.5" width="210.0" height="34" rx="7" fill="#33404d"/>
<rect x="14.0" y="165.5" width="210.0" height="7" fill="#33404d"/>
<text x="24.0" y="153.5" font-family="Helvetica, Arial, sans-serif" font-size="11" font-weight="700" fill="#ffffff">CellularInterface</text>
<text x="24.0" y="165.5" font-family="Helvetica, Arial, sans-serif" font-size="7.5" fill="#c7d0d8">DRAFT · mechanism unspecified</text>
<text x="24.0" y="189.5" font-family="Helvetica, Arial, sans-serif" font-size="9" fill="#233"><tspan fill="#3a7ca5" font-size="8">◂</tspan> chemical ext<tspan fill="#6b7785" font-size="7.5">  (mol·L⁻¹)</tspan></text>
<text x="24.0" y="206.5" font-family="Helvetica, Arial, sans-serif" font-size="9" fill="#233"><tspan fill="#3a7ca5" font-size="8">◂</tspan> mechanical ext<tspan fill="#6b7785" font-size="7.5">  (kg·m·s⁻² (N))</tspan></text>
<text x="24.0" y="223.5" font-family="Helvetica, Arial, sans-serif" font-size="9" fill="#233"><tspan fill="#3a7ca5" font-size="8">◂</tspan> electrical ext<tspan fill="#6b7785" font-size="7.5">  (V)</tspan></text>
<text x="24.0" y="240.5" font-family="Helvetica, Arial, sans-serif" font-size="9" fill="#233"><tspan fill="#3a7ca5" font-size="8">◂</tspan> thermal ext<tspan fill="#6b7785" font-size="7.5">  (°C)</tspan></text>
<text x="24.0" y="257.5" font-family="Helvetica, Arial, sans-serif" font-size="9" fill="#233"><tspan fill="#c65b34" font-size="8">▸</tspan> chemical<tspan fill="#6b7785" font-size="7.5">  (mol·s⁻¹)</tspan></text>
<text x="24.0" y="274.5" font-family="Helvetica, Arial, sans-serif" font-size="9" fill="#233"><tspan fill="#c65b34" font-size="8">▸</tspan> mechanical<tspan fill="#6b7785" font-size="7.5">  (kg·m·s⁻² (N))</tspan></text>
<text x="24.0" y="291.5" font-family="Helvetica, Arial, sans-serif" font-size="9" fill="#233"><tspan fill="#c65b34" font-size="8">▸</tspan> electrical<tspan fill="#6b7785" font-size="7.5">  (C·s⁻¹ (A))</tspan></text>
<text x="24.0" y="308.5" font-family="Helvetica, Arial, sans-serif" font-size="9" fill="#233"><tspan fill="#c65b34" font-size="8">▸</tspan> thermal<tspan fill="#6b7785" font-size="7.5">  (J·s⁻¹ (W))</tspan></text>
<text x="24.0" y="325.5" font-family="Helvetica, Arial, sans-serif" font-size="9" fill="#233"><tspan fill="#c65b34" font-size="8">▸</tspan> growth rate<tspan fill="#6b7785" font-size="7.5">  (hr⁻¹)</tspan></text>
<text x="24.0" y="342.5" font-family="Helvetica, Arial, sans-serif" font-size="9" fill="#233"><tspan fill="#c65b34" font-size="8">▸</tspan> shape<tspan fill="#6b7785" font-size="7.5">  (m³)</tspan></text>
<text x="24.0" y="359.5" font-family="Helvetica, Arial, sans-serif" font-size="9" fill="#233"><tspan fill="#c65b34" font-size="8">▸</tspan> signaling<tspan fill="#6b7785" font-size="7.5">  (bits·s⁻¹)</tspan></text>
<text x="24.0" y="376.5" font-family="Helvetica, Arial, sans-serif" font-size="9" fill="#233"><tspan fill="#c65b34" font-size="8">▸</tspan> objective<tspan fill="#6b7785" font-size="7.5">  (dimensionless)</tspan></text>
<text x="24.0" y="393.5" font-family="Helvetica, Arial, sans-serif" font-size="9" fill="#233"><tspan fill="#c65b34" font-size="8">▸</tspan> viability<tspan fill="#6b7785" font-size="7.5">  (0–1 (in-bounds fraction))</tspan></text>
</svg>