<?xml version="1.0" encoding="utf-8" standalone="no"?>
<!DOCTYPE svg PUBLIC "-//W3C//DTD SVG 1.1//EN"
  "http://www.w3.org/Graphics/SVG/1.1/DTD/svg11.dtd">
<svg xmlns:xlink="http://www.w3.org/1999/xlink" width="446.4pt" height="280.8pt" viewBox="0 0 446.4 280.8" xmlns="http://www.w3.org/2000/svg" version="1.1">
 <metadata>
  <rdf:RDF xmlns:dc="http://purl.org/dc/elements/1.1/" xmlns:cc="http://creativecommons.org/ns#" xmlns:rdf="http://www.w3.org/1999/02/22-rdf-syntax-ns#">
   <cc:Work>
    <dc:type rdf:resource="http://purl.org/dc/dcmitype/StillImage"/>
    <dc:date>2026-08-18T09:55:17.861423</dc:date>
    <dc:format>image/svg+xml</dc:format>
    <dc:creator>
     <cc:Agent>
      <dc:title>Matplotlib v3.11.1, https://matplotlib.org/</dc:title>
     </cc:Agent>
    </dc:creator>
   </cc:Work>
  </rdf:RDF>
 </metadata>
 <defs>
  <style type="text/css">*{stroke-linejoin: round; stroke-linecap: butt}</style>
 </defs>
 <g id="figure_1">
  <g id="patch_1">
   <path d="M 0 280.8 
L 446.4 280.8 
L 446.4 0 
L 0 0 
z
" style="fill: #ffffff"/>
  </g>
  <g id="axes_1">
   <g id="patch_2">
    <path d="M 38.362109 239.637891 
L 435.6 239.637891 
L 435.6 25.157422 
L 38.362109 25.157422 
z
" style="fill: #ffffff"/>
   </g>
   <g id="matplotlib.axis_1">
    <g id="xtick_1">
     <g id="line2d_1">
      <path d="M 56.418377 239.637891 
L 56.418377 25.157422 
" clip-path="url(#p3458a9f4f6)" style="fill: none; stroke: #b0b0b0; stroke-opacity: 0.15; stroke-width: 0.8; stroke-linecap: square"/>
     </g>
     <g id="line2d_2">
      <defs>
       <path id="m84c1a2481c" d="M 0 0 
L 0 3.5 
" style="stroke: #000000; stroke-width: 0.8"/>
      </defs>
      <g>
       <use xlink:href="#m84c1a2481c" x="56.418377" y="239.637891" style="stroke: #000000; stroke-width: 0.8"/>
      </g>
     </g>
     <g id="text_1">
      <!-- 0.0 -->
      <g transform="translate(48.466815 254.235547) scale(0.1 -0.1)">
       <defs>
        <path id="DejaVuSans-13" d="M 2034 4250 
Q 1547 4250 1301 3770 
Q 1056 3291 1056 2328 
Q 1056 1369 1301 889 
Q 1547 409 2034 409 
Q 2525 409 2770 889 
Q 3016 1369 3016 2328 
Q 3016 3291 2770 3770 
Q 2525 4250 2034 4250 
z
M 2034 4750 
Q 2819 4750 3233 4129 
Q 3647 3509 3647 2328 
Q 3647 1150 3233 529 
Q 2819 -91 2034 -91 
Q 1250 -91 836 529 
Q 422 1150 422 2328 
Q 422 3509 836 4129 
Q 1250 4750 2034 4750 
z
" transform="scale(0.015625)"/>
        <path id="DejaVuSans-11" d="M 684 794 
L 1344 794 
L 1344 0 
L 684 0 
L 684 794 
z
" transform="scale(0.015625)"/>
       </defs>
       <use xlink:href="#DejaVuSans-13"/>
       <use xlink:href="#DejaVuSans-11" transform="translate(63.625 0)"/>
       <use xlink:href="#DejaVuSans-13" transform="translate(95.40625 0)"/>
      </g>
     </g>
    </g>
    <g id="xtick_2">
     <g id="line2d_3">
      <path d="M 101.785884 239.637891 
L 101.785884 25.157422 
" clip-path="url(#p3458a9f4f6)" style="fill: none; stroke: #b0b0b0; stroke-opacity: 0.15; stroke-width: 0.8; stroke-linecap: square"/>
     </g>
     <g id="line2d_4">
      <g>
       <use xlink:href="#m84c1a2481c" x="101.785884" y="239.637891" style="stroke: #000000; stroke-width: 0.8"/>
      </g>
     </g>
     <g id="text_2">
      <!-- 2.5 -->
      <g transform="translate(93.834322 254.235547) scale(0.1 -0.1)">
       <defs>
        <path id="DejaVuSans-15" d="M 1228 531 
L 3431 531 
L 3431 0 
L 469 0 
L 469 531 
Q 828 903 1448 1529 
Q 2069 2156 2228 2338 
Q 2531 2678 2651 2914 
Q 2772 3150 2772 3378 
Q 2772 3750 2511 3984 
Q 2250 4219 1831 4219 
Q 1534 4219 1204 4116 
Q 875 4013 500 3803 
L 500 4441 
Q 881 4594 1212 4672 
Q 1544 4750 1819 4750 
Q 2544 4750 2975 4387 
Q 3406 4025 3406 3419 
Q 3406 3131 3298 2873 
Q 3191 2616 2906 2266 
Q 2828 2175 2409 1742 
Q 1991 1309 1228 531 
z
" transform="scale(0.015625)"/>
        <path id="DejaVuSans-18" d="M 691 4666 
L 3169 4666 
L 3169 4134 
L 1269 4134 
L 1269 2991 
Q 1406 3038 1543 3061 
Q 1681 3084 1819 3084 
Q 2600 3084 3056 2656 
Q 3513 2228 3513 1497 
Q 3513 744 3044 326 
Q 2575 -91 1722 -91 
Q 1428 -91 1123 -41 
Q 819 9 494 109 
L 494 744 
Q 775 591 1075 516 
Q 1375 441 1709 441 
Q 2250 441 2565 725 
Q 2881 1009 2881 1497 
Q 2881 1984 2565 2268 
Q 2250 2553 1709 2553 
Q 1456 2553 1204 2497 
Q 953 2441 691 2322 
L 691 4666 
z
" transform="scale(0.015625)"/>
       </defs>
       <use xlink:href="#DejaVuSans-15"/>
       <use xlink:href="#DejaVuSans-11" transform="translate(63.625 0)"/>
       <use xlink:href="#DejaVuSans-18" transform="translate(95.40625 0)"/>
      </g>
     </g>
    </g>
    <g id="xtick_3">
     <g id="line2d_5">
      <path d="M 147.153391 239.637891 
L 147.153391 25.157422 
" clip-path="url(#p3458a9f4f6)" style="fill: none; stroke: #b0b0b0; stroke-opacity: 0.15; stroke-width: 0.8; stroke-linecap: square"/>
     </g>
     <g id="line2d_6">
      <g>
       <use xlink:href="#m84c1a2481c" x="147.153391" y="239.637891" style="stroke: #000000; stroke-width: 0.8"/>
      </g>
     </g>
     <g id="text_3">
      <!-- 5.0 -->
      <g transform="translate(139.201828 254.235547) scale(0.1 -0.1)">
       <use xlink:href="#DejaVuSans-18"/>
       <use xlink:href="#DejaVuSans-11" transform="translate(63.625 0)"/>
       <use xlink:href="#DejaVuSans-13" transform="translate(95.40625 0)"/>
      </g>
     </g>
    </g>
    <g id="xtick_4">
     <g id="line2d_7">
      <path d="M 192.520898 239.637891 
L 192.520898 25.157422 
" clip-path="url(#p3458a9f4f6)" style="fill: none; stroke: #b0b0b0; stroke-opacity: 0.15; stroke-width: 0.8; stroke-linecap: square"/>
     </g>
     <g id="line2d_8">
      <g>
       <use xlink:href="#m84c1a2481c" x="192.520898" y="239.637891" style="stroke: #000000; stroke-width: 0.8"/>
      </g>
     </g>
     <g id="text_4">
      <!-- 7.5 -->
      <g transform="translate(184.569335 254.235547) scale(0.1 -0.1)">
       <defs>
        <path id="DejaVuSans-1a" d="M 525 4666 
L 3525 4666 
L 3525 4397 
L 1831 0 
L 1172 0 
L 2766 4134 
L 525 4134 
L 525 4666 
z
" transform="scale(0.015625)"/>
       </defs>
       <use xlink:href="#DejaVuSans-1a"/>
       <use xlink:href="#DejaVuSans-11" transform="translate(63.625 0)"/>
       <use xlink:href="#DejaVuSans-18" transform="translate(95.40625 0)"/>
      </g>
     </g>
    </g>
    <g id="xtick_5">
     <g id="line2d_9">
      <path d="M 237.888405 239.637891 
L 237.888405 25.157422 
" clip-path="url(#p3458a9f4f6)" style="fill: none; stroke: #b0b0b0; stroke-opacity: 0.15; stroke-width: 0.8; stroke-linecap: square"/>
     </g>
     <g id="line2d_10">
      <g>
       <use xlink:href="#m84c1a2481c" x="237.888405" y="239.637891" style="stroke: #000000; stroke-width: 0.8"/>
      </g>
     </g>
     <g id="text_5">
      <!-- 10.0 -->
      <g transform="translate(226.755592 254.235547) scale(0.1 -0.1)">
       <defs>
        <path id="DejaVuSans-14" d="M 794 531 
L 1825 531 
L 1825 4091 
L 703 3866 
L 703 4441 
L 1819 4666 
L 2450 4666 
L 2450 531 
L 3481 531 
L 3481 0 
L 794 0 
L 794 531 
z
" transform="scale(0.015625)"/>
       </defs>
       <use xlink:href="#DejaVuSans-14"/>
       <use xlink:href="#DejaVuSans-13" transform="translate(63.625 0)"/>
       <use xlink:href="#DejaVuSans-11" transform="translate(127.25 0)"/>
       <use xlink:href="#DejaVuSans-13" transform="translate(159.03125 0)"/>
      </g>
     </g>
    </g>
    <g id="xtick_6">
     <g id="line2d_11">
      <path d="M 283.255912 239.637891 
L 283.255912 25.157422 
" clip-path="url(#p3458a9f4f6)" style="fill: none; stroke: #b0b0b0; stroke-opacity: 0.15; stroke-width: 0.8; stroke-linecap: square"/>
     </g>
     <g id="line2d_12">
      <g>
       <use xlink:href="#m84c1a2481c" x="283.255912" y="239.637891" style="stroke: #000000; stroke-width: 0.8"/>
      </g>
     </g>
     <g id="text_6">
      <!-- 12.5 -->
      <g transform="translate(272.123099 254.235547) scale(0.1 -0.1)">
       <use xlink:href="#DejaVuSans-14"/>
       <use xlink:href="#DejaVuSans-15" transform="translate(63.625 0)"/>
       <use xlink:href="#DejaVuSans-11" transform="translate(127.25 0)"/>
       <use xlink:href="#DejaVuSans-18" transform="translate(159.03125 0)"/>
      </g>
     </g>
    </g>
    <g id="xtick_7">
     <g id="line2d_13">
      <path d="M 328.623419 239.637891 
L 328.623419 25.157422 
" clip-path="url(#p3458a9f4f6)" style="fill: none; stroke: #b0b0b0; stroke-opacity: 0.15; stroke-width: 0.8; stroke-linecap: square"/>
     </g>
     <g id="line2d_14">
      <g>
       <use xlink:href="#m84c1a2481c" x="328.623419" y="239.637891" style="stroke: #000000; stroke-width: 0.8"/>
      </g>
     </g>
     <g id="text_7">
      <!-- 15.0 -->
      <g transform="translate(317.490606 254.235547) scale(0.1 -0.1)">
       <use xlink:href="#DejaVuSans-14"/>
       <use xlink:href="#DejaVuSans-18" transform="translate(63.625 0)"/>
       <use xlink:href="#DejaVuSans-11" transform="translate(127.25 0)"/>
       <use xlink:href="#DejaVuSans-13" transform="translate(159.03125 0)"/>
      </g>
     </g>
    </g>
    <g id="xtick_8">
     <g id="line2d_15">
      <path d="M 373.990926 239.637891 
L 373.990926 25.157422 
" clip-path="url(#p3458a9f4f6)" style="fill: none; stroke: #b0b0b0; stroke-opacity: 0.15; stroke-width: 0.8; stroke-linecap: square"/>
     </g>
     <g id="line2d_16">
      <g>
       <use xlink:href="#m84c1a2481c" x="373.990926" y="239.637891" style="stroke: #000000; stroke-width: 0.8"/>
      </g>
     </g>
     <g id="text_8">
      <!-- 17.5 -->
      <g transform="translate(362.858113 254.235547) scale(0.1 -0.1)">
       <use xlink:href="#DejaVuSans-14"/>
       <use xlink:href="#DejaVuSans-1a" transform="translate(63.625 0)"/>
       <use xlink:href="#DejaVuSans-11" transform="translate(127.25 0)"/>
       <use xlink:href="#DejaVuSans-18" transform="translate(159.03125 0)"/>
      </g>
     </g>
    </g>
    <g id="xtick_9">
     <g id="line2d_17">
      <path d="M 419.358433 239.637891 
L 419.358433 25.157422 
" clip-path="url(#p3458a9f4f6)" style="fill: none; stroke: #b0b0b0; stroke-opacity: 0.15; stroke-width: 0.8; stroke-linecap: square"/>
     </g>
     <g id="line2d_18">
      <g>
       <use xlink:href="#m84c1a2481c" x="419.358433" y="239.637891" style="stroke: #000000; stroke-width: 0.8"/>
      </g>
     </g>
     <g id="text_9">
      <!-- 20.0 -->
      <g transform="translate(408.22562 254.235547) scale(0.1 -0.1)">
       <use xlink:href="#DejaVuSans-15"/>
       <use xlink:href="#DejaVuSans-13" transform="translate(63.625 0)"/>
       <use xlink:href="#DejaVuSans-11" transform="translate(127.25 0)"/>
       <use xlink:href="#DejaVuSans-13" transform="translate(159.03125 0)"/>
      </g>
     </g>
    </g>
    <g id="text_10">
     <!-- time -->
     <g transform="translate(226.81457 267.476484) scale(0.09 -0.09)">
      <defs>
       <path id="DejaVuSans-57" d="M 1172 4494 
L 1172 3500 
L 2356 3500 
L 2356 3053 
L 1172 3053 
L 1172 1153 
Q 1172 725 1289 603 
Q 1406 481 1766 481 
L 2356 481 
L 2356 0 
L 1766 0 
Q 1100 0 847 248 
Q 594 497 594 1153 
L 594 3053 
L 172 3053 
L 172 3500 
L 594 3500 
L 594 4494 
L 1172 4494 
z
" transform="scale(0.015625)"/>
       <path id="DejaVuSans-4c" d="M 603 3500 
L 1178 3500 
L 1178 0 
L 603 0 
L 603 3500 
z
M 603 4863 
L 1178 4863 
L 1178 4134 
L 603 4134 
L 603 4863 
z
" transform="scale(0.015625)"/>
       <path id="DejaVuSans-50" d="M 3328 2828 
Q 3544 3216 3844 3400 
Q 4144 3584 4550 3584 
Q 5097 3584 5394 3201 
Q 5691 2819 5691 2113 
L 5691 0 
L 5113 0 
L 5113 2094 
Q 5113 2597 4934 2840 
Q 4756 3084 4391 3084 
Q 3944 3084 3684 2787 
Q 3425 2491 3425 1978 
L 3425 0 
L 2847 0 
L 2847 2094 
Q 2847 2600 2669 2842 
Q 2491 3084 2119 3084 
Q 1678 3084 1418 2786 
Q 1159 2488 1159 1978 
L 1159 0 
L 581 0 
L 581 3500 
L 1159 3500 
L 1159 2956 
Q 1356 3278 1631 3431 
Q 1906 3584 2284 3584 
Q 2666 3584 2933 3390 
Q 3200 3197 3328 2828 
z
" transform="scale(0.015625)"/>
       <path id="DejaVuSans-48" d="M 3597 1894 
L 3597 1613 
L 953 1613 
Q 991 1019 1311 708 
Q 1631 397 2203 397 
Q 2534 397 2845 478 
Q 3156 559 3463 722 
L 3463 178 
Q 3153 47 2828 -22 
Q 2503 -91 2169 -91 
Q 1331 -91 842 396 
Q 353 884 353 1716 
Q 353 2575 817 3079 
Q 1281 3584 2069 3584 
Q 2775 3584 3186 3129 
Q 3597 2675 3597 1894 
z
M 3022 2063 
Q 3016 2534 2758 2815 
Q 2500 3097 2075 3097 
Q 1594 3097 1305 2825 
Q 1016 2553 972 2059 
L 3022 2063 
z
" transform="scale(0.015625)"/>
      </defs>
      <use xlink:href="#DejaVuSans-57"/>
      <use xlink:href="#DejaVuSans-4c" transform="translate(39.203125 0)"/>
      <use xlink:href="#DejaVuSans-50" transform="translate(66.984375 0)"/>
      <use xlink:href="#DejaVuSans-48" transform="translate(164.390625 0)"/>
     </g>
    </g>
   </g>
   <g id="matplotlib.axis_2">
    <g id="ytick_1">
     <g id="line2d_19">
      <path d="M 38.362109 239.426377 
L 435.6 239.426377 
" clip-path="url(#p3458a9f4f6)" style="fill: none; stroke: #b0b0b0; stroke-opacity: 0.15; stroke-width: 0.8; stroke-linecap: square"/>
     </g>
     <g id="line2d_20">
      <defs>
       <path id="mf475a0dc95" d="M 0 0 
L -3.5 0 
" style="stroke: #000000; stroke-width: 0.8"/>
      </defs>
      <g>
       <use xlink:href="#mf475a0dc95" x="38.362109" y="239.426377" style="stroke: #000000; stroke-width: 0.8"/>
      </g>
     </g>
     <g id="text_11">
      <!-- 0 -->
      <g transform="translate(24.999609 243.225205) scale(0.1 -0.1)">
       <use xlink:href="#DejaVuSans-13"/>
      </g>
     </g>
    </g>
    <g id="ytick_2">
     <g id="line2d_21">
      <path d="M 38.362109 207.634382 
L 435.6 207.634382 
" clip-path="url(#p3458a9f4f6)" style="fill: none; stroke: #b0b0b0; stroke-opacity: 0.15; stroke-width: 0.8; stroke-linecap: square"/>
     </g>
     <g id="line2d_22">
      <g>
       <use xlink:href="#mf475a0dc95" x="38.362109" y="207.634382" style="stroke: #000000; stroke-width: 0.8"/>
      </g>
     </g>
     <g id="text_12">
      <!-- 1 -->
      <g transform="translate(24.999609 211.43321) scale(0.1 -0.1)">
       <use xlink:href="#DejaVuSans-14"/>
      </g>
     </g>
    </g>
    <g id="ytick_3">
     <g id="line2d_23">
      <path d="M 38.362109 175.842388 
L 435.6 175.842388 
" clip-path="url(#p3458a9f4f6)" style="fill: none; stroke: #b0b0b0; stroke-opacity: 0.15; stroke-width: 0.8; stroke-linecap: square"/>
     </g>
     <g id="line2d_24">
      <g>
       <use xlink:href="#mf475a0dc95" x="38.362109" y="175.842388" style="stroke: #000000; stroke-width: 0.8"/>
      </g>
     </g>
     <g id="text_13">
      <!-- 2 -->
      <g transform="translate(24.999609 179.641216) scale(0.1 -0.1)">
       <use xlink:href="#DejaVuSans-15"/>
      </g>
     </g>
    </g>
    <g id="ytick_4">
     <g id="line2d_25">
      <path d="M 38.362109 144.050393 
L 435.6 144.050393 
" clip-path="url(#p3458a9f4f6)" style="fill: none; stroke: #b0b0b0; stroke-opacity: 0.15; stroke-width: 0.8; stroke-linecap: square"/>
     </g>
     <g id="line2d_26">
      <g>
       <use xlink:href="#mf475a0dc95" x="38.362109" y="144.050393" style="stroke: #000000; stroke-width: 0.8"/>
      </g>
     </g>
     <g id="text_14">
      <!-- 3 -->
      <g transform="translate(24.999609 147.849222) scale(0.1 -0.1)">
       <defs>
        <path id="DejaVuSans-16" d="M 2597 2516 
Q 3050 2419 3304 2112 
Q 3559 1806 3559 1356 
Q 3559 666 3084 287 
Q 2609 -91 1734 -91 
Q 1441 -91 1130 -33 
Q 819 25 488 141 
L 488 750 
Q 750 597 1062 519 
Q 1375 441 1716 441 
Q 2309 441 2620 675 
Q 2931 909 2931 1356 
Q 2931 1769 2642 2001 
Q 2353 2234 1838 2234 
L 1294 2234 
L 1294 2753 
L 1863 2753 
Q 2328 2753 2575 2939 
Q 2822 3125 2822 3475 
Q 2822 3834 2567 4026 
Q 2313 4219 1838 4219 
Q 1578 4219 1281 4162 
Q 984 4106 628 3988 
L 628 4550 
Q 988 4650 1302 4700 
Q 1616 4750 1894 4750 
Q 2613 4750 3031 4423 
Q 3450 4097 3450 3541 
Q 3450 3153 3228 2886 
Q 3006 2619 2597 2516 
z
" transform="scale(0.015625)"/>
       </defs>
       <use xlink:href="#DejaVuSans-16"/>
      </g>
     </g>
    </g>
    <g id="ytick_5">
     <g id="line2d_27">
      <path d="M 38.362109 112.258399 
L 435.6 112.258399 
" clip-path="url(#p3458a9f4f6)" style="fill: none; stroke: #b0b0b0; stroke-opacity: 0.15; stroke-width: 0.8; stroke-linecap: square"/>
     </g>
     <g id="line2d_28">
      <g>
       <use xlink:href="#mf475a0dc95" x="38.362109" y="112.258399" style="stroke: #000000; stroke-width: 0.8"/>
      </g>
     </g>
     <g id="text_15">
      <!-- 4 -->
      <g transform="translate(24.999609 116.057227) scale(0.1 -0.1)">
       <defs>
        <path id="DejaVuSans-17" d="M 2419 4116 
L 825 1625 
L 2419 1625 
L 2419 4116 
z
M 2253 4666 
L 3047 4666 
L 3047 1625 
L 3713 1625 
L 3713 1100 
L 3047 1100 
L 3047 0 
L 2419 0 
L 2419 1100 
L 313 1100 
L 313 1709 
L 2253 4666 
z
" transform="scale(0.015625)"/>
       </defs>
       <use xlink:href="#DejaVuSans-17"/>
      </g>
     </g>
    </g>
    <g id="ytick_6">
     <g id="line2d_29">
      <path d="M 38.362109 80.466405 
L 435.6 80.466405 
" clip-path="url(#p3458a9f4f6)" style="fill: none; stroke: #b0b0b0; stroke-opacity: 0.15; stroke-width: 0.8; stroke-linecap: square"/>
     </g>
     <g id="line2d_30">
      <g>
       <use xlink:href="#mf475a0dc95" x="38.362109" y="80.466405" style="stroke: #000000; stroke-width: 0.8"/>
      </g>
     </g>
     <g id="text_16">
      <!-- 5 -->
      <g transform="translate(24.999609 84.265233) scale(0.1 -0.1)">
       <use xlink:href="#DejaVuSans-18"/>
      </g>
     </g>
    </g>
    <g id="ytick_7">
     <g id="line2d_31">
      <path d="M 38.362109 48.67441 
L 435.6 48.67441 
" clip-path="url(#p3458a9f4f6)" style="fill: none; stroke: #b0b0b0; stroke-opacity: 0.15; stroke-width: 0.8; stroke-linecap: square"/>
     </g>
     <g id="line2d_32">
      <g>
       <use xlink:href="#mf475a0dc95" x="38.362109" y="48.67441" style="stroke: #000000; stroke-width: 0.8"/>
      </g>
     </g>
     <g id="text_17">
      <!-- 6 -->
      <g transform="translate(24.999609 52.473238) scale(0.1 -0.1)">
       <defs>
        <path id="DejaVuSans-19" d="M 2113 2584 
Q 1688 2584 1439 2293 
Q 1191 2003 1191 1497 
Q 1191 994 1439 701 
Q 1688 409 2113 409 
Q 2538 409 2786 701 
Q 3034 994 3034 1497 
Q 3034 2003 2786 2293 
Q 2538 2584 2113 2584 
z
M 3366 4563 
L 3366 3988 
Q 3128 4100 2886 4159 
Q 2644 4219 2406 4219 
Q 1781 4219 1451 3797 
Q 1122 3375 1075 2522 
Q 1259 2794 1537 2939 
Q 1816 3084 2150 3084 
Q 2853 3084 3261 2657 
Q 3669 2231 3669 1497 
Q 3669 778 3244 343 
Q 2819 -91 2113 -91 
Q 1303 -91 875 529 
Q 447 1150 447 2328 
Q 447 3434 972 4092 
Q 1497 4750 2381 4750 
Q 2619 4750 2861 4703 
Q 3103 4656 3366 4563 
z
" transform="scale(0.015625)"/>
       </defs>
       <use xlink:href="#DejaVuSans-19"/>
      </g>
     </g>
    </g>
    <g id="text_18">
     <!-- biomass -->
     <g transform="translate(18.8375 151.087422) rotate(-90) scale(0.09 -0.09)">
      <defs>
       <path id="DejaVuSans-45" d="M 3116 1747 
Q 3116 2381 2855 2742 
Q 2594 3103 2138 3103 
Q 1681 3103 1420 2742 
Q 1159 2381 1159 1747 
Q 1159 1113 1420 752 
Q 1681 391 2138 391 
Q 2594 391 2855 752 
Q 3116 1113 3116 1747 
z
M 1159 2969 
Q 1341 3281 1617 3432 
Q 1894 3584 2278 3584 
Q 2916 3584 3314 3078 
Q 3713 2572 3713 1747 
Q 3713 922 3314 415 
Q 2916 -91 2278 -91 
Q 1894 -91 1617 61 
Q 1341 213 1159 525 
L 1159 0 
L 581 0 
L 581 4863 
L 1159 4863 
L 1159 2969 
z
" transform="scale(0.015625)"/>
       <path id="DejaVuSans-52" d="M 1959 3097 
Q 1497 3097 1228 2736 
Q 959 2375 959 1747 
Q 959 1119 1226 758 
Q 1494 397 1959 397 
Q 2419 397 2687 759 
Q 2956 1122 2956 1747 
Q 2956 2369 2687 2733 
Q 2419 3097 1959 3097 
z
M 1959 3584 
Q 2709 3584 3137 3096 
Q 3566 2609 3566 1747 
Q 3566 888 3137 398 
Q 2709 -91 1959 -91 
Q 1206 -91 779 398 
Q 353 888 353 1747 
Q 353 2609 779 3096 
Q 1206 3584 1959 3584 
z
" transform="scale(0.015625)"/>
       <path id="DejaVuSans-44" d="M 2194 1759 
Q 1497 1759 1228 1600 
Q 959 1441 959 1056 
Q 959 750 1161 570 
Q 1363 391 1709 391 
Q 2188 391 2477 730 
Q 2766 1069 2766 1631 
L 2766 1759 
L 2194 1759 
z
M 3341 1997 
L 3341 0 
L 2766 0 
L 2766 531 
Q 2569 213 2275 61 
Q 1981 -91 1556 -91 
Q 1019 -91 701 211 
Q 384 513 384 1019 
Q 384 1609 779 1909 
Q 1175 2209 1959 2209 
L 2766 2209 
L 2766 2266 
Q 2766 2663 2505 2880 
Q 2244 3097 1772 3097 
Q 1472 3097 1187 3025 
Q 903 2953 641 2809 
L 641 3341 
Q 956 3463 1253 3523 
Q 1550 3584 1831 3584 
Q 2591 3584 2966 3190 
Q 3341 2797 3341 1997 
z
" transform="scale(0.015625)"/>
       <path id="DejaVuSans-56" d="M 2834 3397 
L 2834 2853 
Q 2591 2978 2328 3040 
Q 2066 3103 1784 3103 
Q 1356 3103 1142 2972 
Q 928 2841 928 2578 
Q 928 2378 1081 2264 
Q 1234 2150 1697 2047 
L 1894 2003 
Q 2506 1872 2764 1633 
Q 3022 1394 3022 966 
Q 3022 478 2636 193 
Q 2250 -91 1575 -91 
Q 1294 -91 989 -36 
Q 684 19 347 128 
L 347 722 
Q 666 556 975 473 
Q 1284 391 1588 391 
Q 1994 391 2212 530 
Q 2431 669 2431 922 
Q 2431 1156 2273 1281 
Q 2116 1406 1581 1522 
L 1381 1569 
Q 847 1681 609 1914 
Q 372 2147 372 2553 
Q 372 3047 722 3315 
Q 1072 3584 1716 3584 
Q 2034 3584 2315 3537 
Q 2597 3491 2834 3397 
z
" transform="scale(0.015625)"/>
      </defs>
      <use xlink:href="#DejaVuSans-45"/>
      <use xlink:href="#DejaVuSans-4c" transform="translate(63.484375 0)"/>
      <use xlink:href="#DejaVuSans-52" transform="translate(91.265625 0)"/>
      <use xlink:href="#DejaVuSans-50" transform="translate(152.453125 0)"/>
      <use xlink:href="#DejaVuSans-44" transform="translate(249.859375 0)"/>
      <use xlink:href="#DejaVuSans-56" transform="translate(311.140625 0)"/>
      <use xlink:href="#DejaVuSans-56" transform="translate(363.234375 0)"/>
     </g>
    </g>
   </g>
   <g id="line2d_33">
    <path d="M 56.418377 229.888778 
L 60.047778 229.793402 
L 63.677178 229.339069 
L 67.306579 228.567562 
L 70.935979 227.515799 
L 74.56538 226.216403 
L 78.19478 224.698197 
L 81.824181 222.986652 
L 87.268282 220.105326 
L 92.712383 216.904233 
L 98.156484 213.437545 
L 105.415285 208.478794 
L 109.044685 205.879746 
L 110.859385 221.3277 
L 118.118187 215.876941 
L 127.191688 208.788989 
L 138.07989 199.987033 
L 150.782792 189.435067 
L 167.115094 175.581795 
L 190.706198 155.253025 
L 228.814903 122.06927 
L 279.626511 77.700977 
L 283.255912 74.888689 
L 286.885312 72.309956 
L 292.329413 68.799336 
L 297.773514 65.64091 
L 303.217615 62.774988 
L 308.661716 60.160323 
L 314.105816 57.767157 
L 319.549917 55.573029 
L 323.179318 68.653667 
L 326.808718 80.78331 
L 330.438119 92.032615 
L 334.06752 102.467045 
L 337.69692 112.147202 
L 341.326321 121.129155 
L 344.955721 129.464746 
L 348.585122 137.201899 
L 352.214522 144.3849 
L 355.843923 151.054668 
L 359.473323 157.249007 
L 363.102724 163.002842 
L 366.732124 168.348441 
L 370.361525 173.315619 
L 373.990926 177.931929 
L 377.620326 182.222834 
L 381.249727 186.211876 
L 384.879127 189.920822 
L 388.508528 193.369804 
L 392.137928 196.57745 
L 395.767329 199.560995 
L 399.396729 202.336397 
L 403.02613 204.91843 
L 408.470231 208.458579 
L 413.914332 211.63625 
L 417.543732 213.572021 
L 417.543732 213.572021 
" clip-path="url(#p3458a9f4f6)" style="fill: none; stroke: #0d6e6b; stroke-width: 2.2; stroke-linecap: square"/>
   </g>
   <g id="line2d_34">
    <path d="M 110.859385 221.3277 
" clip-path="url(#p3458a9f4f6)" style="fill: none; stroke: #0d6e6b; stroke-width: 1.5; stroke-linecap: square"/>
    <defs>
     <path id="m28305525ef" d="M -0 4 
L 4 -4 
L -4 -4 
z
" style="stroke: #0d6e6b; stroke-linejoin: miter"/>
    </defs>
    <g clip-path="url(#p3458a9f4f6)">
     <use xlink:href="#m28305525ef" x="110.859385" y="221.3277" style="fill: #0d6e6b; stroke: #0d6e6b; stroke-linejoin: miter"/>
    </g>
   </g>
   <g id="line2d_35">
    <path d="M 56.418377 229.888778 
L 58.233077 229.888778 
L 60.047778 229.394236 
L 61.862478 228.618395 
L 63.677178 227.658122 
L 67.306579 225.380091 
L 70.935979 222.799513 
L 76.38008 218.598404 
L 83.638881 212.655473 
L 92.712383 204.956757 
L 94.527083 220.631917 
L 114.488786 203.290176 
L 185.262097 141.326826 
L 279.626511 58.74719 
L 283.255912 55.911876 
L 288.700013 52.000321 
L 294.144113 48.399406 
L 299.588214 45.062553 
L 305.032315 41.973192 
L 310.476416 39.125471 
L 315.920517 36.515984 
L 319.549917 34.906534 
L 323.179318 49.464069 
L 326.808718 62.977771 
L 330.438119 75.526508 
L 334.06752 87.182502 
L 337.69692 98.011929 
L 341.326321 108.075482 
L 344.955721 117.428889 
L 348.585122 126.123385 
L 352.214522 134.206144 
L 355.843923 141.720657 
L 359.473323 148.707082 
L 363.102724 155.202546 
L 366.732124 161.241417 
L 370.361525 166.855546 
L 373.990926 172.074482 
L 377.620326 176.925663 
L 381.249727 181.434586 
L 384.879127 185.624962 
L 388.508528 189.518854 
L 392.137928 193.136797 
L 395.767329 196.497916 
L 399.396729 199.620026 
L 403.02613 202.519723 
L 406.655531 205.212472 
L 410.284931 207.712687 
L 415.729032 211.131139 
L 417.543732 212.188328 
L 417.543732 212.188328 
" clip-path="url(#p3458a9f4f6)" style="fill: none; stroke: #a5620f; stroke-width: 2.2; stroke-linecap: square"/>
   </g>
   <g id="line2d_36">
    <path d="M 94.527083 220.631917 
" clip-path="url(#p3458a9f4f6)" style="fill: none; stroke: #a5620f; stroke-width: 1.5; stroke-linecap: square"/>
    <defs>
     <path id="mdaa1c5daa0" d="M -0 4 
L 4 -4 
L -4 -4 
z
" style="stroke: #a5620f; stroke-linejoin: miter"/>
    </defs>
    <g clip-path="url(#p3458a9f4f6)">
     <use xlink:href="#mdaa1c5daa0" x="94.527083" y="220.631917" style="fill: #a5620f; stroke: #a5620f; stroke-linejoin: miter"/>
    </g>
   </g>
   <g id="line2d_37">
    <path d="M 56.418377 229.888778 
L 60.047778 229.8827 
L 61.862478 229.729439 
L 63.677178 229.442749 
L 67.306579 228.522022 
L 70.935979 227.206228 
L 74.56538 225.564474 
L 78.19478 223.653779 
L 81.824181 221.521188 
L 87.268282 217.989266 
L 92.712383 214.147435 
L 99.971184 208.674221 
L 103.600584 205.825192 
L 105.415285 221.178935 
L 114.488786 213.770808 
L 127.191688 203.072047 
L 145.338691 187.451674 
L 178.003296 158.979269 
L 281.441211 68.63008 
L 285.070612 65.921962 
L 290.514713 62.208648 
L 295.958814 58.822569 
L 301.402915 55.700619 
L 306.847015 52.804397 
L 312.291116 50.135907 
L 317.735217 47.741078 
L 319.549917 46.998287 
L 323.179318 60.70406 
L 326.808718 73.428452 
L 330.438119 85.241417 
L 334.06752 96.208222 
L 337.69692 106.389711 
L 341.326321 115.849609 
L 344.955721 124.640822 
L 348.585122 132.810124 
L 352.214522 140.401136 
L 355.843923 147.454512 
L 359.473323 154.008113 
L 363.102724 160.097186 
L 366.732124 165.754524 
L 370.361525 171.010634 
L 373.990926 175.894406 
L 377.620326 180.439953 
L 381.249727 184.671577 
L 384.879127 188.60975 
L 388.508528 192.273744 
L 392.137928 195.681684 
L 395.767329 198.850602 
L 399.396729 201.796492 
L 403.02613 204.534361 
L 406.655531 207.078282 
L 412.099631 210.559126 
L 417.543732 213.674087 
L 417.543732 213.674087 
" clip-path="url(#p3458a9f4f6)" style="fill: none; stroke: #1c7a77; stroke-width: 2.2; stroke-linecap: square"/>
   </g>
   <g id="line2d_38">
    <path d="M 105.415285 221.178935 
" clip-path="url(#p3458a9f4f6)" style="fill: none; stroke: #1c7a77; stroke-width: 1.5; stroke-linecap: square"/>
    <defs>
     <path id="m995104e6a6" d="M -0 4 
L 4 -4 
L -4 -4 
z
" style="stroke: #1c7a77; stroke-linejoin: miter"/>
    </defs>
    <g clip-path="url(#p3458a9f4f6)">
     <use xlink:href="#m995104e6a6" x="105.415285" y="221.178935" style="fill: #1c7a77; stroke: #1c7a77; stroke-linejoin: miter"/>
    </g>
   </g>
   <g id="patch_3">
    <path d="M 38.362109 239.637891 
L 38.362109 25.157422 
" style="fill: none; stroke: #000000; stroke-width: 0.8; stroke-linejoin: miter; stroke-linecap: square"/>
   </g>
   <g id="patch_4">
    <path d="M 38.362109 239.637891 
L 435.6 239.637891 
" style="fill: none; stroke: #000000; stroke-width: 0.8; stroke-linejoin: miter; stroke-linecap: square"/>
   </g>
   <g id="text_19">
    <!-- one composed cell, three metabolisms — three life histories -->
    <g style="fill: #16211f" transform="translate(71.521289 19.157422) scale(0.11 -0.11)">
     <defs>
      <path id="DejaVuSans-51" d="M 3513 2113 
L 3513 0 
L 2938 0 
L 2938 2094 
Q 2938 2591 2744 2837 
Q 2550 3084 2163 3084 
Q 1697 3084 1428 2787 
Q 1159 2491 1159 1978 
L 1159 0 
L 581 0 
L 581 3500 
L 1159 3500 
L 1159 2956 
Q 1366 3272 1645 3428 
Q 1925 3584 2291 3584 
Q 2894 3584 3203 3211 
Q 3513 2838 3513 2113 
z
" transform="scale(0.015625)"/>
      <path id="DejaVuSans-3" transform="scale(0.015625)"/>
      <path id="DejaVuSans-46" d="M 3122 3366 
L 3122 2828 
Q 2878 2963 2633 3030 
Q 2388 3097 2138 3097 
Q 1578 3097 1268 2742 
Q 959 2388 959 1747 
Q 959 1106 1268 751 
Q 1578 397 2138 397 
Q 2388 397 2633 464 
Q 2878 531 3122 666 
L 3122 134 
Q 2881 22 2623 -34 
Q 2366 -91 2075 -91 
Q 1284 -91 818 406 
Q 353 903 353 1747 
Q 353 2603 823 3093 
Q 1294 3584 2113 3584 
Q 2378 3584 2631 3529 
Q 2884 3475 3122 3366 
z
" transform="scale(0.015625)"/>
      <path id="DejaVuSans-53" d="M 1159 525 
L 1159 -1331 
L 581 -1331 
L 581 3500 
L 1159 3500 
L 1159 2969 
Q 1341 3281 1617 3432 
Q 1894 3584 2278 3584 
Q 2916 3584 3314 3078 
Q 3713 2572 3713 1747 
Q 3713 922 3314 415 
Q 2916 -91 2278 -91 
Q 1894 -91 1617 61 
Q 1341 213 1159 525 
z
M 3116 1747 
Q 3116 2381 2855 2742 
Q 2594 3103 2138 3103 
Q 1681 3103 1420 2742 
Q 1159 2381 1159 1747 
Q 1159 1113 1420 752 
Q 1681 391 2138 391 
Q 2594 391 2855 752 
Q 3116 1113 3116 1747 
z
" transform="scale(0.015625)"/>
      <path id="DejaVuSans-47" d="M 2906 2969 
L 2906 4863 
L 3481 4863 
L 3481 0 
L 2906 0 
L 2906 525 
Q 2725 213 2448 61 
Q 2172 -91 1784 -91 
Q 1150 -91 751 415 
Q 353 922 353 1747 
Q 353 2572 751 3078 
Q 1150 3584 1784 3584 
Q 2172 3584 2448 3432 
Q 2725 3281 2906 2969 
z
M 947 1747 
Q 947 1113 1208 752 
Q 1469 391 1925 391 
Q 2381 391 2643 752 
Q 2906 1113 2906 1747 
Q 2906 2381 2643 2742 
Q 2381 3103 1925 3103 
Q 1469 3103 1208 2742 
Q 947 2381 947 1747 
z
" transform="scale(0.015625)"/>
      <path id="DejaVuSans-4f" d="M 603 4863 
L 1178 4863 
L 1178 0 
L 603 0 
L 603 4863 
z
" transform="scale(0.015625)"/>
      <path id="DejaVuSans-f" d="M 750 794 
L 1409 794 
L 1409 256 
L 897 -744 
L 494 -744 
L 750 256 
L 750 794 
z
" transform="scale(0.015625)"/>
      <path id="DejaVuSans-4b" d="M 3513 2113 
L 3513 0 
L 2938 0 
L 2938 2094 
Q 2938 2591 2744 2837 
Q 2550 3084 2163 3084 
Q 1697 3084 1428 2787 
Q 1159 2491 1159 1978 
L 1159 0 
L 581 0 
L 581 4863 
L 1159 4863 
L 1159 2956 
Q 1366 3272 1645 3428 
Q 1925 3584 2291 3584 
Q 2894 3584 3203 3211 
Q 3513 2838 3513 2113 
z
" transform="scale(0.015625)"/>
      <path id="DejaVuSans-55" d="M 2631 2963 
Q 2534 3019 2420 3045 
Q 2306 3072 2169 3072 
Q 1681 3072 1420 2755 
Q 1159 2438 1159 1844 
L 1159 0 
L 581 0 
L 581 3500 
L 1159 3500 
L 1159 2956 
Q 1341 3275 1631 3429 
Q 1922 3584 2338 3584 
Q 2397 3584 2469 3576 
Q 2541 3569 2628 3553 
L 2631 2963 
z
" transform="scale(0.015625)"/>
      <path id="DejaVuSans-af6" d="M 313 1978 
L 6088 1978 
L 6088 1528 
L 313 1528 
L 313 1978 
z
" transform="scale(0.015625)"/>
      <path id="DejaVuSans-49" d="M 2375 4863 
L 2375 4384 
L 1825 4384 
Q 1516 4384 1395 4259 
Q 1275 4134 1275 3809 
L 1275 3500 
L 2222 3500 
L 2222 3053 
L 1275 3053 
L 1275 0 
L 697 0 
L 697 3053 
L 147 3053 
L 147 3500 
L 697 3500 
L 697 3744 
Q 697 4328 969 4595 
Q 1241 4863 1831 4863 
L 2375 4863 
z
" transform="scale(0.015625)"/>
     </defs>
     <use xlink:href="#DejaVuSans-52"/>
     <use xlink:href="#DejaVuSans-51" transform="translate(61.1875 0)"/>
     <use xlink:href="#DejaVuSans-48" transform="translate(124.5625 0)"/>
     <use xlink:href="#DejaVuSans-3" transform="translate(186.09375 0)"/>
     <use xlink:href="#DejaVuSans-46" transform="translate(217.875 0)"/>
     <use xlink:href="#DejaVuSans-52" transform="translate(272.859375 0)"/>
     <use xlink:href="#DejaVuSans-50" transform="translate(334.046875 0)"/>
     <use xlink:href="#DejaVuSans-53" transform="translate(431.453125 0)"/>
     <use xlink:href="#DejaVuSans-52" transform="translate(494.9375 0)"/>
     <use xlink:href="#DejaVuSans-56" transform="translate(556.125 0)"/>
     <use xlink:href="#DejaVuSans-48" transform="translate(608.21875 0)"/>
     <use xlink:href="#DejaVuSans-47" transform="translate(669.75 0)"/>
     <use xlink:href="#DejaVuSans-3" transform="translate(733.234375 0)"/>
     <use xlink:href="#DejaVuSans-46" transform="translate(765.015625 0)"/>
     <use xlink:href="#DejaVuSans-48" transform="translate(820 0)"/>
     <use xlink:href="#DejaVuSans-4f" transform="translate(881.53125 0)"/>
     <use xlink:href="#DejaVuSans-4f" transform="translate(909.3125 0)"/>
     <use xlink:href="#DejaVuSans-f" transform="translate(937.09375 0)"/>
     <use xlink:href="#DejaVuSans-3" transform="translate(968.875 0)"/>
     <use xlink:href="#DejaVuSans-57" transform="translate(1000.65625 0)"/>
     <use xlink:href="#DejaVuSans-4b" transform="translate(1039.859375 0)"/>
     <use xlink:href="#DejaVuSans-55" transform="translate(1103.234375 0)"/>
     <use xlink:href="#DejaVuSans-48" transform="translate(1142.140625 0)"/>
     <use xlink:href="#DejaVuSans-48" transform="translate(1203.671875 0)"/>
     <use xlink:href="#DejaVuSans-3" transform="translate(1265.203125 0)"/>
     <use xlink:href="#DejaVuSans-50" transform="translate(1296.984375 0)"/>
     <use xlink:href="#DejaVuSans-48" transform="translate(1394.390625 0)"/>
     <use xlink:href="#DejaVuSans-57" transform="translate(1455.921875 0)"/>
     <use xlink:href="#DejaVuSans-44" transform="translate(1495.125 0)"/>
     <use xlink:href="#DejaVuSans-45" transform="translate(1556.40625 0)"/>
     <use xlink:href="#DejaVuSans-52" transform="translate(1619.890625 0)"/>
     <use xlink:href="#DejaVuSans-4f" transform="translate(1681.078125 0)"/>
     <use xlink:href="#DejaVuSans-4c" transform="translate(1708.859375 0)"/>
     <use xlink:href="#DejaVuSans-56" transform="translate(1736.640625 0)"/>
     <use xlink:href="#DejaVuSans-50" transform="translate(1788.734375 0)"/>
     <use xlink:href="#DejaVuSans-56" transform="translate(1886.140625 0)"/>
     <use xlink:href="#DejaVuSans-3" transform="translate(1938.234375 0)"/>
     <use xlink:href="#DejaVuSans-af6" transform="translate(1970.015625 0)"/>
     <use xlink:href="#DejaVuSans-3" transform="translate(2070.015625 0)"/>
     <use xlink:href="#DejaVuSans-57" transform="translate(2101.796875 0)"/>
     <use xlink:href="#DejaVuSans-4b" transform="translate(2141 0)"/>
     <use xlink:href="#DejaVuSans-55" transform="translate(2204.375 0)"/>
     <use xlink:href="#DejaVuSans-48" transform="translate(2243.28125 0)"/>
     <use xlink:href="#DejaVuSans-48" transform="translate(2304.8125 0)"/>
     <use xlink:href="#DejaVuSans-3" transform="translate(2366.34375 0)"/>
     <use xlink:href="#DejaVuSans-4f" transform="translate(2398.125 0)"/>
     <use xlink:href="#DejaVuSans-4c" transform="translate(2425.90625 0)"/>
     <use xlink:href="#DejaVuSans-49" transform="translate(2453.6875 0)"/>
     <use xlink:href="#DejaVuSans-48" transform="translate(2488.890625 0)"/>
     <use xlink:href="#DejaVuSans-3" transform="translate(2550.421875 0)"/>
     <use xlink:href="#DejaVuSans-4b" transform="translate(2582.203125 0)"/>
     <use xlink:href="#DejaVuSans-4c" transform="translate(2645.578125 0)"/>
     <use xlink:href="#DejaVuSans-56" transform="translate(2673.359375 0)"/>
     <use xlink:href="#DejaVuSans-57" transform="translate(2725.453125 0)"/>
     <use xlink:href="#DejaVuSans-52" transform="translate(2764.65625 0)"/>
     <use xlink:href="#DejaVuSans-55" transform="translate(2825.84375 0)"/>
     <use xlink:href="#DejaVuSans-4c" transform="translate(2866.953125 0)"/>
     <use xlink:href="#DejaVuSans-48" transform="translate(2894.734375 0)"/>
     <use xlink:href="#DejaVuSans-56" transform="translate(2956.265625 0)"/>
    </g>
   </g>
   <g id="legend_1">
    <g id="text_20">
     <!-- ▾ = division (threshold reached) -->
     <g transform="translate(316.549844 37.676328) scale(0.07 -0.07)">
      <defs>
       <path id="DejaVuSans-e95" d="M 19 3256 
L 3194 3256 
L 1606 69 
L 19 3256 
z
" transform="scale(0.015625)"/>
       <path id="DejaVuSans-20" d="M 678 2906 
L 4684 2906 
L 4684 2381 
L 678 2381 
L 678 2906 
z
M 678 1631 
L 4684 1631 
L 4684 1100 
L 678 1100 
L 678 1631 
z
" transform="scale(0.015625)"/>
       <path id="DejaVuSans-59" d="M 191 3500 
L 800 3500 
L 1894 563 
L 2988 3500 
L 3597 3500 
L 2284 0 
L 1503 0 
L 191 3500 
z
" transform="scale(0.015625)"/>
       <path id="DejaVuSans-b" d="M 1984 4856 
Q 1566 4138 1362 3434 
Q 1159 2731 1159 2009 
Q 1159 1288 1364 580 
Q 1569 -128 1984 -844 
L 1484 -844 
Q 1016 -109 783 600 
Q 550 1309 550 2009 
Q 550 2706 781 3412 
Q 1013 4119 1484 4856 
L 1984 4856 
z
" transform="scale(0.015625)"/>
       <path id="DejaVuSans-c" d="M 513 4856 
L 1013 4856 
Q 1481 4119 1714 3412 
Q 1947 2706 1947 2009 
Q 1947 1309 1714 600 
Q 1481 -109 1013 -844 
L 513 -844 
Q 928 -128 1133 580 
Q 1338 1288 1338 2009 
Q 1338 2731 1133 3434 
Q 928 4138 513 4856 
z
" transform="scale(0.015625)"/>
      </defs>
      <use xlink:href="#DejaVuSans-e95"/>
      <use xlink:href="#DejaVuSans-3" transform="translate(50.203125 0)"/>
      <use xlink:href="#DejaVuSans-20" transform="translate(81.984375 0)"/>
      <use xlink:href="#DejaVuSans-3" transform="translate(165.78125 0)"/>
      <use xlink:href="#DejaVuSans-47" transform="translate(197.5625 0)"/>
      <use xlink:href="#DejaVuSans-4c" transform="translate(261.046875 0)"/>
      <use xlink:href="#DejaVuSans-59" transform="translate(288.828125 0)"/>
      <use xlink:href="#DejaVuSans-4c" transform="translate(348.015625 0)"/>
      <use xlink:href="#DejaVuSans-56" transform="translate(375.796875 0)"/>
      <use xlink:href="#DejaVuSans-4c" transform="translate(427.890625 0)"/>
      <use xlink:href="#DejaVuSans-52" transform="translate(455.671875 0)"/>
      <use xlink:href="#DejaVuSans-51" transform="translate(516.859375 0)"/>
      <use xlink:href="#DejaVuSans-3" transform="translate(580.234375 0)"/>
      <use xlink:href="#DejaVuSans-b" transform="translate(612.015625 0)"/>
      <use xlink:href="#DejaVuSans-57" transform="translate(651.03125 0)"/>
      <use xlink:href="#DejaVuSans-4b" transform="translate(690.234375 0)"/>
      <use xlink:href="#DejaVuSans-55" transform="translate(753.609375 0)"/>
      <use xlink:href="#DejaVuSans-48" transform="translate(792.515625 0)"/>
      <use xlink:href="#DejaVuSans-56" transform="translate(854.046875 0)"/>
      <use xlink:href="#DejaVuSans-4b" transform="translate(906.140625 0)"/>
      <use xlink:href="#DejaVuSans-52" transform="translate(969.515625 0)"/>
      <use xlink:href="#DejaVuSans-4f" transform="translate(1030.703125 0)"/>
      <use xlink:href="#DejaVuSans-47" transform="translate(1058.484375 0)"/>
      <use xlink:href="#DejaVuSans-3" transform="translate(1121.96875 0)"/>
      <use xlink:href="#DejaVuSans-55" transform="translate(1153.75 0)"/>
      <use xlink:href="#DejaVuSans-48" transform="translate(1192.65625 0)"/>
      <use xlink:href="#DejaVuSans-44" transform="translate(1254.1875 0)"/>
      <use xlink:href="#DejaVuSans-46" transform="translate(1315.46875 0)"/>
      <use xlink:href="#DejaVuSans-4b" transform="translate(1370.453125 0)"/>
      <use xlink:href="#DejaVuSans-48" transform="translate(1433.828125 0)"/>
      <use xlink:href="#DejaVuSans-47" transform="translate(1495.359375 0)"/>
      <use xlink:href="#DejaVuSans-c" transform="translate(1558.84375 0)"/>
     </g>
    </g>
    <g id="line2d_39">
     <path d="M 323.134922 46.636719 
L 331.134922 46.636719 
L 339.134922 46.636719 
" style="fill: none; stroke: #0d6e6b; stroke-width: 2.2; stroke-linecap: square"/>
    </g>
    <g id="text_21">
     <!-- coarse metabolism -->
     <g transform="translate(345.534922 49.436719) scale(0.08 -0.08)">
      <use xlink:href="#DejaVuSans-46"/>
      <use xlink:href="#DejaVuSans-52" transform="translate(54.984375 0)"/>
      <use xlink:href="#DejaVuSans-44" transform="translate(116.171875 0)"/>
      <use xlink:href="#DejaVuSans-55" transform="translate(177.453125 0)"/>
      <use xlink:href="#DejaVuSans-56" transform="translate(218.5625 0)"/>
      <use xlink:href="#DejaVuSans-48" transform="translate(270.65625 0)"/>
      <use xlink:href="#DejaVuSans-3" transform="translate(332.1875 0)"/>
      <use xlink:href="#DejaVuSans-50" transform="translate(363.96875 0)"/>
      <use xlink:href="#DejaVuSans-48" transform="translate(461.375 0)"/>
      <use xlink:href="#DejaVuSans-57" transform="translate(522.90625 0)"/>
      <use xlink:href="#DejaVuSans-44" transform="translate(562.109375 0)"/>
      <use xlink:href="#DejaVuSans-45" transform="translate(623.390625 0)"/>
      <use xlink:href="#DejaVuSans-52" transform="translate(686.875 0)"/>
      <use xlink:href="#DejaVuSans-4f" transform="translate(748.0625 0)"/>
      <use xlink:href="#DejaVuSans-4c" transform="translate(775.84375 0)"/>
      <use xlink:href="#DejaVuSans-56" transform="translate(803.625 0)"/>
      <use xlink:href="#DejaVuSans-50" transform="translate(855.71875 0)"/>
     </g>
    </g>
    <g id="line2d_40">
     <path d="M 323.134922 58.637344 
L 331.134922 58.637344 
L 339.134922 58.637344 
" style="fill: none; stroke: #a5620f; stroke-width: 2.2; stroke-linecap: square"/>
    </g>
    <g id="text_22">
     <!-- kinetic metabolism -->
     <g transform="translate(345.534922 61.437344) scale(0.08 -0.08)">
      <defs>
       <path id="DejaVuSans-4e" d="M 581 4863 
L 1159 4863 
L 1159 1991 
L 2875 3500 
L 3609 3500 
L 1753 1863 
L 3688 0 
L 2938 0 
L 1159 1709 
L 1159 0 
L 581 0 
L 581 4863 
z
" transform="scale(0.015625)"/>
      </defs>
      <use xlink:href="#DejaVuSans-4e"/>
      <use xlink:href="#DejaVuSans-4c" transform="translate(57.90625 0)"/>
      <use xlink:href="#DejaVuSans-51" transform="translate(85.6875 0)"/>
      <use xlink:href="#DejaVuSans-48" transform="translate(149.0625 0)"/>
      <use xlink:href="#DejaVuSans-57" transform="translate(210.59375 0)"/>
      <use xlink:href="#DejaVuSans-4c" transform="translate(249.796875 0)"/>
      <use xlink:href="#DejaVuSans-46" transform="translate(277.578125 0)"/>
      <use xlink:href="#DejaVuSans-3" transform="translate(332.5625 0)"/>
      <use xlink:href="#DejaVuSans-50" transform="translate(364.34375 0)"/>
      <use xlink:href="#DejaVuSans-48" transform="translate(461.75 0)"/>
      <use xlink:href="#DejaVuSans-57" transform="translate(523.28125 0)"/>
      <use xlink:href="#DejaVuSans-44" transform="translate(562.484375 0)"/>
      <use xlink:href="#DejaVuSans-45" transform="translate(623.765625 0)"/>
      <use xlink:href="#DejaVuSans-52" transform="translate(687.25 0)"/>
      <use xlink:href="#DejaVuSans-4f" transform="translate(748.4375 0)"/>
      <use xlink:href="#DejaVuSans-4c" transform="translate(776.21875 0)"/>
      <use xlink:href="#DejaVuSans-56" transform="translate(804 0)"/>
      <use xlink:href="#DejaVuSans-50" transform="translate(856.09375 0)"/>
     </g>
    </g>
    <g id="line2d_41">
     <path d="M 323.134922 70.637969 
L 331.134922 70.637969 
L 339.134922 70.637969 
" style="fill: none; stroke: #1c7a77; stroke-width: 2.2; stroke-linecap: square"/>
    </g>
    <g id="text_23">
     <!-- fba metabolism -->
     <g transform="translate(345.534922 73.437969) scale(0.08 -0.08)">
      <use xlink:href="#DejaVuSans-49"/>
      <use xlink:href="#DejaVuSans-45" transform="translate(35.203125 0)"/>
      <use xlink:href="#DejaVuSans-44" transform="translate(98.6875 0)"/>
      <use xlink:href="#DejaVuSans-3" transform="translate(159.96875 0)"/>
      <use xlink:href="#DejaVuSans-50" transform="translate(191.75 0)"/>
      <use xlink:href="#DejaVuSans-48" transform="translate(289.15625 0)"/>
      <use xlink:href="#DejaVuSans-57" transform="translate(350.6875 0)"/>
      <use xlink:href="#DejaVuSans-44" transform="translate(389.890625 0)"/>
      <use xlink:href="#DejaVuSans-45" transform="translate(451.171875 0)"/>
      <use xlink:href="#DejaVuSans-52" transform="translate(514.65625 0)"/>
      <use xlink:href="#DejaVuSans-4f" transform="translate(575.84375 0)"/>
      <use xlink:href="#DejaVuSans-4c" transform="translate(603.625 0)"/>
      <use xlink:href="#DejaVuSans-56" transform="translate(631.40625 0)"/>
      <use xlink:href="#DejaVuSans-50" transform="translate(683.5 0)"/>
     </g>
    </g>
   </g>
  </g>
 </g>
 <defs>
  <clipPath id="p3458a9f4f6">
   <rect x="38.362109" y="25.157422" width="397.237891" height="214.480469"/>
  </clipPath>
 </defs>
</svg>
