<?xml version="1.0" encoding="utf-8" standalone="no"?>
<!DOCTYPE svg PUBLIC "-//W3C//DTD SVG 1.1//EN"
  "http://www.w3.org/Graphics/SVG/1.1/DTD/svg11.dtd">
<svg xmlns:xlink="http://www.w3.org/1999/xlink" width="676.8pt" height="252pt" viewBox="0 0 676.8 252" xmlns="http://www.w3.org/2000/svg" version="1.1">
 <metadata>
  <rdf:RDF xmlns:dc="http://purl.org/dc/elements/1.1/" xmlns:cc="http://creativecommons.org/ns#" xmlns:rdf="http://www.w3.org/1999/02/22-rdf-syntax-ns#">
   <cc:Work>
    <dc:type rdf:resource="http://purl.org/dc/dcmitype/StillImage"/>
    <dc:date>2026-08-16T09:45:39.513648</dc:date>
    <dc:format>image/svg+xml</dc:format>
    <dc:creator>
     <cc:Agent>
      <dc:title>Matplotlib v3.11.1, https://matplotlib.org/</dc:title>
     </cc:Agent>
    </dc:creator>
   </cc:Work>
  </rdf:RDF>
 </metadata>
 <defs>
  <style type="text/css">*{stroke-linejoin: round; stroke-linecap: butt}</style>
 </defs>
 <g id="figure_1">
  <g id="patch_1">
   <path d="M 0 252 
L 676.8 252 
L 676.8 0 
L 0 0 
z
" style="fill: #ffffff"/>
  </g>
  <g id="axes_1">
   <g id="patch_2">
    <path d="M 44.890909 210.2 
L 314.318182 210.2 
L 314.318182 24.397656 
L 44.890909 24.397656 
z
" style="fill: #ffffff"/>
   </g>
   <g id="matplotlib.axis_1">
    <g id="xtick_1">
     <g id="line2d_1">
      <path d="M 57.137603 210.2 
L 57.137603 24.397656 
" clip-path="url(#pe129fa5c9b)" style="fill: none; stroke: #b0b0b0; stroke-opacity: 0.15; stroke-width: 0.8; stroke-linecap: square"/>
     </g>
     <g id="line2d_2">
      <defs>
       <path id="mfb35ace907" d="M 0 0 
L 0 3.5 
" style="stroke: #000000; stroke-width: 0.8"/>
      </defs>
      <g>
       <use xlink:href="#mfb35ace907" x="57.137603" y="210.2" style="stroke: #000000; stroke-width: 0.8"/>
      </g>
     </g>
     <g id="text_1">
      <!-- 0.0 -->
      <g transform="translate(49.186041 224.797656) scale(0.1 -0.1)">
       <defs>
        <path id="DejaVuSans-13" d="M 2034 4250 
Q 1547 4250 1301 3770 
Q 1056 3291 1056 2328 
Q 1056 1369 1301 889 
Q 1547 409 2034 409 
Q 2525 409 2770 889 
Q 3016 1369 3016 2328 
Q 3016 3291 2770 3770 
Q 2525 4250 2034 4250 
z
M 2034 4750 
Q 2819 4750 3233 4129 
Q 3647 3509 3647 2328 
Q 3647 1150 3233 529 
Q 2819 -91 2034 -91 
Q 1250 -91 836 529 
Q 422 1150 422 2328 
Q 422 3509 836 4129 
Q 1250 4750 2034 4750 
z
" transform="scale(0.015625)"/>
        <path id="DejaVuSans-11" d="M 684 794 
L 1344 794 
L 1344 0 
L 684 0 
L 684 794 
z
" transform="scale(0.015625)"/>
       </defs>
       <use xlink:href="#DejaVuSans-13"/>
       <use xlink:href="#DejaVuSans-11" transform="translate(63.625 0)"/>
       <use xlink:href="#DejaVuSans-13" transform="translate(95.40625 0)"/>
      </g>
     </g>
    </g>
    <g id="xtick_2">
     <g id="line2d_3">
      <path d="M 91.156198 210.2 
L 91.156198 24.397656 
" clip-path="url(#pe129fa5c9b)" style="fill: none; stroke: #b0b0b0; stroke-opacity: 0.15; stroke-width: 0.8; stroke-linecap: square"/>
     </g>
     <g id="line2d_4">
      <g>
       <use xlink:href="#mfb35ace907" x="91.156198" y="210.2" style="stroke: #000000; stroke-width: 0.8"/>
      </g>
     </g>
     <g id="text_2">
      <!-- 2.5 -->
      <g transform="translate(83.204636 224.797656) scale(0.1 -0.1)">
       <defs>
        <path id="DejaVuSans-15" d="M 1228 531 
L 3431 531 
L 3431 0 
L 469 0 
L 469 531 
Q 828 903 1448 1529 
Q 2069 2156 2228 2338 
Q 2531 2678 2651 2914 
Q 2772 3150 2772 3378 
Q 2772 3750 2511 3984 
Q 2250 4219 1831 4219 
Q 1534 4219 1204 4116 
Q 875 4013 500 3803 
L 500 4441 
Q 881 4594 1212 4672 
Q 1544 4750 1819 4750 
Q 2544 4750 2975 4387 
Q 3406 4025 3406 3419 
Q 3406 3131 3298 2873 
Q 3191 2616 2906 2266 
Q 2828 2175 2409 1742 
Q 1991 1309 1228 531 
z
" transform="scale(0.015625)"/>
        <path id="DejaVuSans-18" d="M 691 4666 
L 3169 4666 
L 3169 4134 
L 1269 4134 
L 1269 2991 
Q 1406 3038 1543 3061 
Q 1681 3084 1819 3084 
Q 2600 3084 3056 2656 
Q 3513 2228 3513 1497 
Q 3513 744 3044 326 
Q 2575 -91 1722 -91 
Q 1428 -91 1123 -41 
Q 819 9 494 109 
L 494 744 
Q 775 591 1075 516 
Q 1375 441 1709 441 
Q 2250 441 2565 725 
Q 2881 1009 2881 1497 
Q 2881 1984 2565 2268 
Q 2250 2553 1709 2553 
Q 1456 2553 1204 2497 
Q 953 2441 691 2322 
L 691 4666 
z
" transform="scale(0.015625)"/>
       </defs>
       <use xlink:href="#DejaVuSans-15"/>
       <use xlink:href="#DejaVuSans-11" transform="translate(63.625 0)"/>
       <use xlink:href="#DejaVuSans-18" transform="translate(95.40625 0)"/>
      </g>
     </g>
    </g>
    <g id="xtick_3">
     <g id="line2d_5">
      <path d="M 125.174793 210.2 
L 125.174793 24.397656 
" clip-path="url(#pe129fa5c9b)" style="fill: none; stroke: #b0b0b0; stroke-opacity: 0.15; stroke-width: 0.8; stroke-linecap: square"/>
     </g>
     <g id="line2d_6">
      <g>
       <use xlink:href="#mfb35ace907" x="125.174793" y="210.2" style="stroke: #000000; stroke-width: 0.8"/>
      </g>
     </g>
     <g id="text_3">
      <!-- 5.0 -->
      <g transform="translate(117.223231 224.797656) scale(0.1 -0.1)">
       <use xlink:href="#DejaVuSans-18"/>
       <use xlink:href="#DejaVuSans-11" transform="translate(63.625 0)"/>
       <use xlink:href="#DejaVuSans-13" transform="translate(95.40625 0)"/>
      </g>
     </g>
    </g>
    <g id="xtick_4">
     <g id="line2d_7">
      <path d="M 159.193388 210.2 
L 159.193388 24.397656 
" clip-path="url(#pe129fa5c9b)" style="fill: none; stroke: #b0b0b0; stroke-opacity: 0.15; stroke-width: 0.8; stroke-linecap: square"/>
     </g>
     <g id="line2d_8">
      <g>
       <use xlink:href="#mfb35ace907" x="159.193388" y="210.2" style="stroke: #000000; stroke-width: 0.8"/>
      </g>
     </g>
     <g id="text_4">
      <!-- 7.5 -->
      <g transform="translate(151.241826 224.797656) scale(0.1 -0.1)">
       <defs>
        <path id="DejaVuSans-1a" d="M 525 4666 
L 3525 4666 
L 3525 4397 
L 1831 0 
L 1172 0 
L 2766 4134 
L 525 4134 
L 525 4666 
z
" transform="scale(0.015625)"/>
       </defs>
       <use xlink:href="#DejaVuSans-1a"/>
       <use xlink:href="#DejaVuSans-11" transform="translate(63.625 0)"/>
       <use xlink:href="#DejaVuSans-18" transform="translate(95.40625 0)"/>
      </g>
     </g>
    </g>
    <g id="xtick_5">
     <g id="line2d_9">
      <path d="M 193.211983 210.2 
L 193.211983 24.397656 
" clip-path="url(#pe129fa5c9b)" style="fill: none; stroke: #b0b0b0; stroke-opacity: 0.15; stroke-width: 0.8; stroke-linecap: square"/>
     </g>
     <g id="line2d_10">
      <g>
       <use xlink:href="#mfb35ace907" x="193.211983" y="210.2" style="stroke: #000000; stroke-width: 0.8"/>
      </g>
     </g>
     <g id="text_5">
      <!-- 10.0 -->
      <g transform="translate(182.079171 224.797656) scale(0.1 -0.1)">
       <defs>
        <path id="DejaVuSans-14" d="M 794 531 
L 1825 531 
L 1825 4091 
L 703 3866 
L 703 4441 
L 1819 4666 
L 2450 4666 
L 2450 531 
L 3481 531 
L 3481 0 
L 794 0 
L 794 531 
z
" transform="scale(0.015625)"/>
       </defs>
       <use xlink:href="#DejaVuSans-14"/>
       <use xlink:href="#DejaVuSans-13" transform="translate(63.625 0)"/>
       <use xlink:href="#DejaVuSans-11" transform="translate(127.25 0)"/>
       <use xlink:href="#DejaVuSans-13" transform="translate(159.03125 0)"/>
      </g>
     </g>
    </g>
    <g id="xtick_6">
     <g id="line2d_11">
      <path d="M 227.230579 210.2 
L 227.230579 24.397656 
" clip-path="url(#pe129fa5c9b)" style="fill: none; stroke: #b0b0b0; stroke-opacity: 0.15; stroke-width: 0.8; stroke-linecap: square"/>
     </g>
     <g id="line2d_12">
      <g>
       <use xlink:href="#mfb35ace907" x="227.230579" y="210.2" style="stroke: #000000; stroke-width: 0.8"/>
      </g>
     </g>
     <g id="text_6">
      <!-- 12.5 -->
      <g transform="translate(216.097766 224.797656) scale(0.1 -0.1)">
       <use xlink:href="#DejaVuSans-14"/>
       <use xlink:href="#DejaVuSans-15" transform="translate(63.625 0)"/>
       <use xlink:href="#DejaVuSans-11" transform="translate(127.25 0)"/>
       <use xlink:href="#DejaVuSans-18" transform="translate(159.03125 0)"/>
      </g>
     </g>
    </g>
    <g id="xtick_7">
     <g id="line2d_13">
      <path d="M 261.249174 210.2 
L 261.249174 24.397656 
" clip-path="url(#pe129fa5c9b)" style="fill: none; stroke: #b0b0b0; stroke-opacity: 0.15; stroke-width: 0.8; stroke-linecap: square"/>
     </g>
     <g id="line2d_14">
      <g>
       <use xlink:href="#mfb35ace907" x="261.249174" y="210.2" style="stroke: #000000; stroke-width: 0.8"/>
      </g>
     </g>
     <g id="text_7">
      <!-- 15.0 -->
      <g transform="translate(250.116361 224.797656) scale(0.1 -0.1)">
       <use xlink:href="#DejaVuSans-14"/>
       <use xlink:href="#DejaVuSans-18" transform="translate(63.625 0)"/>
       <use xlink:href="#DejaVuSans-11" transform="translate(127.25 0)"/>
       <use xlink:href="#DejaVuSans-13" transform="translate(159.03125 0)"/>
      </g>
     </g>
    </g>
    <g id="xtick_8">
     <g id="line2d_15">
      <path d="M 295.267769 210.2 
L 295.267769 24.397656 
" clip-path="url(#pe129fa5c9b)" style="fill: none; stroke: #b0b0b0; stroke-opacity: 0.15; stroke-width: 0.8; stroke-linecap: square"/>
     </g>
     <g id="line2d_16">
      <g>
       <use xlink:href="#mfb35ace907" x="295.267769" y="210.2" style="stroke: #000000; stroke-width: 0.8"/>
      </g>
     </g>
     <g id="text_8">
      <!-- 17.5 -->
      <g transform="translate(284.134956 224.797656) scale(0.1 -0.1)">
       <use xlink:href="#DejaVuSans-14"/>
       <use xlink:href="#DejaVuSans-1a" transform="translate(63.625 0)"/>
       <use xlink:href="#DejaVuSans-11" transform="translate(127.25 0)"/>
       <use xlink:href="#DejaVuSans-18" transform="translate(159.03125 0)"/>
      </g>
     </g>
    </g>
    <g id="text_9">
     <!-- time -->
     <g transform="translate(168.308452 238.798437) scale(0.1 -0.1)">
      <defs>
       <path id="DejaVuSans-57" d="M 1172 4494 
L 1172 3500 
L 2356 3500 
L 2356 3053 
L 1172 3053 
L 1172 1153 
Q 1172 725 1289 603 
Q 1406 481 1766 481 
L 2356 481 
L 2356 0 
L 1766 0 
Q 1100 0 847 248 
Q 594 497 594 1153 
L 594 3053 
L 172 3053 
L 172 3500 
L 594 3500 
L 594 4494 
L 1172 4494 
z
" transform="scale(0.015625)"/>
       <path id="DejaVuSans-4c" d="M 603 3500 
L 1178 3500 
L 1178 0 
L 603 0 
L 603 3500 
z
M 603 4863 
L 1178 4863 
L 1178 4134 
L 603 4134 
L 603 4863 
z
" transform="scale(0.015625)"/>
       <path id="DejaVuSans-50" d="M 3328 2828 
Q 3544 3216 3844 3400 
Q 4144 3584 4550 3584 
Q 5097 3584 5394 3201 
Q 5691 2819 5691 2113 
L 5691 0 
L 5113 0 
L 5113 2094 
Q 5113 2597 4934 2840 
Q 4756 3084 4391 3084 
Q 3944 3084 3684 2787 
Q 3425 2491 3425 1978 
L 3425 0 
L 2847 0 
L 2847 2094 
Q 2847 2600 2669 2842 
Q 2491 3084 2119 3084 
Q 1678 3084 1418 2786 
Q 1159 2488 1159 1978 
L 1159 0 
L 581 0 
L 581 3500 
L 1159 3500 
L 1159 2956 
Q 1356 3278 1631 3431 
Q 1906 3584 2284 3584 
Q 2666 3584 2933 3390 
Q 3200 3197 3328 2828 
z
" transform="scale(0.015625)"/>
       <path id="DejaVuSans-48" d="M 3597 1894 
L 3597 1613 
L 953 1613 
Q 991 1019 1311 708 
Q 1631 397 2203 397 
Q 2534 397 2845 478 
Q 3156 559 3463 722 
L 3463 178 
Q 3153 47 2828 -22 
Q 2503 -91 2169 -91 
Q 1331 -91 842 396 
Q 353 884 353 1716 
Q 353 2575 817 3079 
Q 1281 3584 2069 3584 
Q 2775 3584 3186 3129 
Q 3597 2675 3597 1894 
z
M 3022 2063 
Q 3016 2534 2758 2815 
Q 2500 3097 2075 3097 
Q 1594 3097 1305 2825 
Q 1016 2553 972 2059 
L 3022 2063 
z
" transform="scale(0.015625)"/>
      </defs>
      <use xlink:href="#DejaVuSans-57"/>
      <use xlink:href="#DejaVuSans-4c" transform="translate(39.203125 0)"/>
      <use xlink:href="#DejaVuSans-50" transform="translate(66.984375 0)"/>
      <use xlink:href="#DejaVuSans-48" transform="translate(164.390625 0)"/>
     </g>
    </g>
   </g>
   <g id="matplotlib.axis_2">
    <g id="ytick_1">
     <g id="line2d_17">
      <path d="M 44.890909 201.561829 
L 314.318182 201.561829 
" clip-path="url(#pe129fa5c9b)" style="fill: none; stroke: #b0b0b0; stroke-opacity: 0.15; stroke-width: 0.8; stroke-linecap: square"/>
     </g>
     <g id="line2d_18">
      <defs>
       <path id="ma6e34a7822" d="M 0 0 
L -3.5 0 
" style="stroke: #000000; stroke-width: 0.8"/>
      </defs>
      <g>
       <use xlink:href="#ma6e34a7822" x="44.890909" y="201.561829" style="stroke: #000000; stroke-width: 0.8"/>
      </g>
     </g>
     <g id="text_10">
      <!-- 0 -->
      <g transform="translate(31.528409 205.360657) scale(0.1 -0.1)">
       <use xlink:href="#DejaVuSans-13"/>
      </g>
     </g>
    </g>
    <g id="ytick_2">
     <g id="line2d_19">
      <path d="M 44.890909 167.818107 
L 314.318182 167.818107 
" clip-path="url(#pe129fa5c9b)" style="fill: none; stroke: #b0b0b0; stroke-opacity: 0.15; stroke-width: 0.8; stroke-linecap: square"/>
     </g>
     <g id="line2d_20">
      <g>
       <use xlink:href="#ma6e34a7822" x="44.890909" y="167.818107" style="stroke: #000000; stroke-width: 0.8"/>
      </g>
     </g>
     <g id="text_11">
      <!-- 2 -->
      <g transform="translate(31.528409 171.616935) scale(0.1 -0.1)">
       <use xlink:href="#DejaVuSans-15"/>
      </g>
     </g>
    </g>
    <g id="ytick_3">
     <g id="line2d_21">
      <path d="M 44.890909 134.074384 
L 314.318182 134.074384 
" clip-path="url(#pe129fa5c9b)" style="fill: none; stroke: #b0b0b0; stroke-opacity: 0.15; stroke-width: 0.8; stroke-linecap: square"/>
     </g>
     <g id="line2d_22">
      <g>
       <use xlink:href="#ma6e34a7822" x="44.890909" y="134.074384" style="stroke: #000000; stroke-width: 0.8"/>
      </g>
     </g>
     <g id="text_12">
      <!-- 4 -->
      <g transform="translate(31.528409 137.873213) scale(0.1 -0.1)">
       <defs>
        <path id="DejaVuSans-17" d="M 2419 4116 
L 825 1625 
L 2419 1625 
L 2419 4116 
z
M 2253 4666 
L 3047 4666 
L 3047 1625 
L 3713 1625 
L 3713 1100 
L 3047 1100 
L 3047 0 
L 2419 0 
L 2419 1100 
L 313 1100 
L 313 1709 
L 2253 4666 
z
" transform="scale(0.015625)"/>
       </defs>
       <use xlink:href="#DejaVuSans-17"/>
      </g>
     </g>
    </g>
    <g id="ytick_4">
     <g id="line2d_23">
      <path d="M 44.890909 100.330662 
L 314.318182 100.330662 
" clip-path="url(#pe129fa5c9b)" style="fill: none; stroke: #b0b0b0; stroke-opacity: 0.15; stroke-width: 0.8; stroke-linecap: square"/>
     </g>
     <g id="line2d_24">
      <g>
       <use xlink:href="#ma6e34a7822" x="44.890909" y="100.330662" style="stroke: #000000; stroke-width: 0.8"/>
      </g>
     </g>
     <g id="text_13">
      <!-- 6 -->
      <g transform="translate(31.528409 104.12949) scale(0.1 -0.1)">
       <defs>
        <path id="DejaVuSans-19" d="M 2113 2584 
Q 1688 2584 1439 2293 
Q 1191 2003 1191 1497 
Q 1191 994 1439 701 
Q 1688 409 2113 409 
Q 2538 409 2786 701 
Q 3034 994 3034 1497 
Q 3034 2003 2786 2293 
Q 2538 2584 2113 2584 
z
M 3366 4563 
L 3366 3988 
Q 3128 4100 2886 4159 
Q 2644 4219 2406 4219 
Q 1781 4219 1451 3797 
Q 1122 3375 1075 2522 
Q 1259 2794 1537 2939 
Q 1816 3084 2150 3084 
Q 2853 3084 3261 2657 
Q 3669 2231 3669 1497 
Q 3669 778 3244 343 
Q 2819 -91 2113 -91 
Q 1303 -91 875 529 
Q 447 1150 447 2328 
Q 447 3434 972 4092 
Q 1497 4750 2381 4750 
Q 2619 4750 2861 4703 
Q 3103 4656 3366 4563 
z
" transform="scale(0.015625)"/>
       </defs>
       <use xlink:href="#DejaVuSans-19"/>
      </g>
     </g>
    </g>
    <g id="ytick_5">
     <g id="line2d_25">
      <path d="M 44.890909 66.58694 
L 314.318182 66.58694 
" clip-path="url(#pe129fa5c9b)" style="fill: none; stroke: #b0b0b0; stroke-opacity: 0.15; stroke-width: 0.8; stroke-linecap: square"/>
     </g>
     <g id="line2d_26">
      <g>
       <use xlink:href="#ma6e34a7822" x="44.890909" y="66.58694" style="stroke: #000000; stroke-width: 0.8"/>
      </g>
     </g>
     <g id="text_14">
      <!-- 8 -->
      <g transform="translate(31.528409 70.385768) scale(0.1 -0.1)">
       <defs>
        <path id="DejaVuSans-1b" d="M 2034 2216 
Q 1584 2216 1326 1975 
Q 1069 1734 1069 1313 
Q 1069 891 1326 650 
Q 1584 409 2034 409 
Q 2484 409 2743 651 
Q 3003 894 3003 1313 
Q 3003 1734 2745 1975 
Q 2488 2216 2034 2216 
z
M 1403 2484 
Q 997 2584 770 2862 
Q 544 3141 544 3541 
Q 544 4100 942 4425 
Q 1341 4750 2034 4750 
Q 2731 4750 3128 4425 
Q 3525 4100 3525 3541 
Q 3525 3141 3298 2862 
Q 3072 2584 2669 2484 
Q 3125 2378 3379 2068 
Q 3634 1759 3634 1313 
Q 3634 634 3220 271 
Q 2806 -91 2034 -91 
Q 1263 -91 848 271 
Q 434 634 434 1313 
Q 434 1759 690 2068 
Q 947 2378 1403 2484 
z
M 1172 3481 
Q 1172 3119 1398 2916 
Q 1625 2713 2034 2713 
Q 2441 2713 2670 2916 
Q 2900 3119 2900 3481 
Q 2900 3844 2670 4047 
Q 2441 4250 2034 4250 
Q 1625 4250 1398 4047 
Q 1172 3844 1172 3481 
z
" transform="scale(0.015625)"/>
       </defs>
       <use xlink:href="#DejaVuSans-1b"/>
      </g>
     </g>
    </g>
    <g id="ytick_6">
     <g id="line2d_27">
      <path d="M 44.890909 32.843217 
L 314.318182 32.843217 
" clip-path="url(#pe129fa5c9b)" style="fill: none; stroke: #b0b0b0; stroke-opacity: 0.15; stroke-width: 0.8; stroke-linecap: square"/>
     </g>
     <g id="line2d_28">
      <g>
       <use xlink:href="#ma6e34a7822" x="44.890909" y="32.843217" style="stroke: #000000; stroke-width: 0.8"/>
      </g>
     </g>
     <g id="text_15">
      <!-- 10 -->
      <g transform="translate(25.165909 36.642045) scale(0.1 -0.1)">
       <use xlink:href="#DejaVuSans-14"/>
       <use xlink:href="#DejaVuSans-13" transform="translate(63.625 0)"/>
      </g>
     </g>
    </g>
    <g id="text_16">
     <!-- amount -->
     <g transform="translate(18.763565 136.590234) rotate(-90) scale(0.1 -0.1)">
      <defs>
       <path id="DejaVuSans-44" d="M 2194 1759 
Q 1497 1759 1228 1600 
Q 959 1441 959 1056 
Q 959 750 1161 570 
Q 1363 391 1709 391 
Q 2188 391 2477 730 
Q 2766 1069 2766 1631 
L 2766 1759 
L 2194 1759 
z
M 3341 1997 
L 3341 0 
L 2766 0 
L 2766 531 
Q 2569 213 2275 61 
Q 1981 -91 1556 -91 
Q 1019 -91 701 211 
Q 384 513 384 1019 
Q 384 1609 779 1909 
Q 1175 2209 1959 2209 
L 2766 2209 
L 2766 2266 
Q 2766 2663 2505 2880 
Q 2244 3097 1772 3097 
Q 1472 3097 1187 3025 
Q 903 2953 641 2809 
L 641 3341 
Q 956 3463 1253 3523 
Q 1550 3584 1831 3584 
Q 2591 3584 2966 3190 
Q 3341 2797 3341 1997 
z
" transform="scale(0.015625)"/>
       <path id="DejaVuSans-52" d="M 1959 3097 
Q 1497 3097 1228 2736 
Q 959 2375 959 1747 
Q 959 1119 1226 758 
Q 1494 397 1959 397 
Q 2419 397 2687 759 
Q 2956 1122 2956 1747 
Q 2956 2369 2687 2733 
Q 2419 3097 1959 3097 
z
M 1959 3584 
Q 2709 3584 3137 3096 
Q 3566 2609 3566 1747 
Q 3566 888 3137 398 
Q 2709 -91 1959 -91 
Q 1206 -91 779 398 
Q 353 888 353 1747 
Q 353 2609 779 3096 
Q 1206 3584 1959 3584 
z
" transform="scale(0.015625)"/>
       <path id="DejaVuSans-58" d="M 544 1381 
L 544 3500 
L 1119 3500 
L 1119 1403 
Q 1119 906 1312 657 
Q 1506 409 1894 409 
Q 2359 409 2629 706 
Q 2900 1003 2900 1516 
L 2900 3500 
L 3475 3500 
L 3475 0 
L 2900 0 
L 2900 538 
Q 2691 219 2414 64 
Q 2138 -91 1772 -91 
Q 1169 -91 856 284 
Q 544 659 544 1381 
z
M 1991 3584 
L 1991 3584 
z
" transform="scale(0.015625)"/>
       <path id="DejaVuSans-51" d="M 3513 2113 
L 3513 0 
L 2938 0 
L 2938 2094 
Q 2938 2591 2744 2837 
Q 2550 3084 2163 3084 
Q 1697 3084 1428 2787 
Q 1159 2491 1159 1978 
L 1159 0 
L 581 0 
L 581 3500 
L 1159 3500 
L 1159 2956 
Q 1366 3272 1645 3428 
Q 1925 3584 2291 3584 
Q 2894 3584 3203 3211 
Q 3513 2838 3513 2113 
z
" transform="scale(0.015625)"/>
      </defs>
      <use xlink:href="#DejaVuSans-44"/>
      <use xlink:href="#DejaVuSans-50" transform="translate(61.28125 0)"/>
      <use xlink:href="#DejaVuSans-52" transform="translate(158.6875 0)"/>
      <use xlink:href="#DejaVuSans-58" transform="translate(219.875 0)"/>
      <use xlink:href="#DejaVuSans-51" transform="translate(283.25 0)"/>
      <use xlink:href="#DejaVuSans-57" transform="translate(346.625 0)"/>
     </g>
    </g>
   </g>
   <g id="line2d_29">
    <path d="M 57.137603 32.843217 
L 61.219835 35.141797 
L 65.302066 37.792877 
L 68.023554 39.782183 
L 70.745041 41.969494 
L 73.466529 44.374241 
L 76.188017 47.017688 
L 78.909504 49.923086 
L 81.630992 53.115834 
L 84.352479 56.623632 
L 87.073967 60.476648 
L 89.795455 64.707662 
L 92.516942 69.352202 
L 95.23843 74.44863 
L 97.959917 80.038177 
L 100.681405 86.16486 
L 103.402893 92.875226 
L 106.12438 100.217797 
L 108.845868 108.242015 
L 111.567355 116.996302 
L 114.288843 126.524521 
L 117.010331 136.859337 
L 119.731818 148.009143 
L 122.453306 159.930142 
L 129.257025 191.137489 
L 130.617769 196.467505 
L 131.978512 200.357012 
L 133.339256 201.754439 
L 134.7 201.482016 
L 136.060744 201.589815 
L 140.142975 201.560632 
L 236.755785 201.561829 
L 302.071488 201.561829 
L 302.071488 201.561829 
" clip-path="url(#pe129fa5c9b)" style="fill: none; stroke: #0d6e6b; stroke-width: 2.2; stroke-linecap: square"/>
   </g>
   <g id="line2d_30">
    <path d="M 57.137603 193.125899 
L 61.219835 191.826449 
L 65.302066 190.327773 
L 69.384298 188.599677 
L 73.466529 186.607529 
L 77.54876 184.311668 
L 81.630992 181.66677 
L 84.352479 179.684365 
L 87.073967 177.50701 
L 89.795455 175.116232 
L 92.516942 172.492027 
L 95.23843 169.612808 
L 97.959917 166.455401 
L 100.681405 162.995102 
L 103.402893 159.205839 
L 106.12438 155.060511 
L 108.845868 150.531632 
L 111.567355 145.592491 
L 114.288843 140.219269 
L 117.010331 134.395 
L 119.731818 128.117366 
L 123.81405 117.931583 
L 129.257025 103.998692 
L 130.617769 101.093371 
L 131.978512 99.061072 
L 133.339256 98.530119 
L 134.7 99.002667 
L 137.421488 99.575541 
L 175.522314 107.798633 
L 198.654959 112.467493 
L 221.787603 116.903872 
L 244.920248 121.119344 
L 269.413636 125.354222 
L 293.907025 129.366155 
L 302.071488 130.65597 
L 302.071488 130.65597 
" clip-path="url(#pe129fa5c9b)" style="fill: none; stroke: #a5620f; stroke-width: 2.2; stroke-linecap: square"/>
   </g>
   <g id="patch_3">
    <path d="M 44.890909 210.2 
L 44.890909 24.397656 
" style="fill: none; stroke: #000000; stroke-width: 0.8; stroke-linejoin: miter; stroke-linecap: square"/>
   </g>
   <g id="patch_4">
    <path d="M 44.890909 210.2 
L 314.318182 210.2 
" style="fill: none; stroke: #000000; stroke-width: 0.8; stroke-linejoin: miter; stroke-linecap: square"/>
   </g>
   <g id="text_17">
    <!-- Growth vs. a depleting nutrient -->
    <g style="fill: #16211f" transform="translate(101.403764 18.397656) scale(0.1 -0.1)">
     <defs>
      <path id="DejaVuSans-2a" d="M 3809 666 
L 3809 1919 
L 2778 1919 
L 2778 2438 
L 4434 2438 
L 4434 434 
Q 4069 175 3628 42 
Q 3188 -91 2688 -91 
Q 1594 -91 976 548 
Q 359 1188 359 2328 
Q 359 3472 976 4111 
Q 1594 4750 2688 4750 
Q 3144 4750 3555 4637 
Q 3966 4525 4313 4306 
L 4313 3634 
Q 3963 3931 3569 4081 
Q 3175 4231 2741 4231 
Q 1884 4231 1454 3753 
Q 1025 3275 1025 2328 
Q 1025 1384 1454 906 
Q 1884 428 2741 428 
Q 3075 428 3337 486 
Q 3600 544 3809 666 
z
" transform="scale(0.015625)"/>
      <path id="DejaVuSans-55" d="M 2631 2963 
Q 2534 3019 2420 3045 
Q 2306 3072 2169 3072 
Q 1681 3072 1420 2755 
Q 1159 2438 1159 1844 
L 1159 0 
L 581 0 
L 581 3500 
L 1159 3500 
L 1159 2956 
Q 1341 3275 1631 3429 
Q 1922 3584 2338 3584 
Q 2397 3584 2469 3576 
Q 2541 3569 2628 3553 
L 2631 2963 
z
" transform="scale(0.015625)"/>
      <path id="DejaVuSans-5a" d="M 269 3500 
L 844 3500 
L 1563 769 
L 2278 3500 
L 2956 3500 
L 3675 769 
L 4391 3500 
L 4966 3500 
L 4050 0 
L 3372 0 
L 2619 2869 
L 1863 0 
L 1184 0 
L 269 3500 
z
" transform="scale(0.015625)"/>
      <path id="DejaVuSans-4b" d="M 3513 2113 
L 3513 0 
L 2938 0 
L 2938 2094 
Q 2938 2591 2744 2837 
Q 2550 3084 2163 3084 
Q 1697 3084 1428 2787 
Q 1159 2491 1159 1978 
L 1159 0 
L 581 0 
L 581 4863 
L 1159 4863 
L 1159 2956 
Q 1366 3272 1645 3428 
Q 1925 3584 2291 3584 
Q 2894 3584 3203 3211 
Q 3513 2838 3513 2113 
z
" transform="scale(0.015625)"/>
      <path id="DejaVuSans-3" transform="scale(0.015625)"/>
      <path id="DejaVuSans-59" d="M 191 3500 
L 800 3500 
L 1894 563 
L 2988 3500 
L 3597 3500 
L 2284 0 
L 1503 0 
L 191 3500 
z
" transform="scale(0.015625)"/>
      <path id="DejaVuSans-56" d="M 2834 3397 
L 2834 2853 
Q 2591 2978 2328 3040 
Q 2066 3103 1784 3103 
Q 1356 3103 1142 2972 
Q 928 2841 928 2578 
Q 928 2378 1081 2264 
Q 1234 2150 1697 2047 
L 1894 2003 
Q 2506 1872 2764 1633 
Q 3022 1394 3022 966 
Q 3022 478 2636 193 
Q 2250 -91 1575 -91 
Q 1294 -91 989 -36 
Q 684 19 347 128 
L 347 722 
Q 666 556 975 473 
Q 1284 391 1588 391 
Q 1994 391 2212 530 
Q 2431 669 2431 922 
Q 2431 1156 2273 1281 
Q 2116 1406 1581 1522 
L 1381 1569 
Q 847 1681 609 1914 
Q 372 2147 372 2553 
Q 372 3047 722 3315 
Q 1072 3584 1716 3584 
Q 2034 3584 2315 3537 
Q 2597 3491 2834 3397 
z
" transform="scale(0.015625)"/>
      <path id="DejaVuSans-47" d="M 2906 2969 
L 2906 4863 
L 3481 4863 
L 3481 0 
L 2906 0 
L 2906 525 
Q 2725 213 2448 61 
Q 2172 -91 1784 -91 
Q 1150 -91 751 415 
Q 353 922 353 1747 
Q 353 2572 751 3078 
Q 1150 3584 1784 3584 
Q 2172 3584 2448 3432 
Q 2725 3281 2906 2969 
z
M 947 1747 
Q 947 1113 1208 752 
Q 1469 391 1925 391 
Q 2381 391 2643 752 
Q 2906 1113 2906 1747 
Q 2906 2381 2643 2742 
Q 2381 3103 1925 3103 
Q 1469 3103 1208 2742 
Q 947 2381 947 1747 
z
" transform="scale(0.015625)"/>
      <path id="DejaVuSans-53" d="M 1159 525 
L 1159 -1331 
L 581 -1331 
L 581 3500 
L 1159 3500 
L 1159 2969 
Q 1341 3281 1617 3432 
Q 1894 3584 2278 3584 
Q 2916 3584 3314 3078 
Q 3713 2572 3713 1747 
Q 3713 922 3314 415 
Q 2916 -91 2278 -91 
Q 1894 -91 1617 61 
Q 1341 213 1159 525 
z
M 3116 1747 
Q 3116 2381 2855 2742 
Q 2594 3103 2138 3103 
Q 1681 3103 1420 2742 
Q 1159 2381 1159 1747 
Q 1159 1113 1420 752 
Q 1681 391 2138 391 
Q 2594 391 2855 752 
Q 3116 1113 3116 1747 
z
" transform="scale(0.015625)"/>
      <path id="DejaVuSans-4f" d="M 603 4863 
L 1178 4863 
L 1178 0 
L 603 0 
L 603 4863 
z
" transform="scale(0.015625)"/>
      <path id="DejaVuSans-4a" d="M 2906 1791 
Q 2906 2416 2648 2759 
Q 2391 3103 1925 3103 
Q 1463 3103 1205 2759 
Q 947 2416 947 1791 
Q 947 1169 1205 825 
Q 1463 481 1925 481 
Q 2391 481 2648 825 
Q 2906 1169 2906 1791 
z
M 3481 434 
Q 3481 -459 3084 -895 
Q 2688 -1331 1869 -1331 
Q 1566 -1331 1297 -1286 
Q 1028 -1241 775 -1147 
L 775 -588 
Q 1028 -725 1275 -790 
Q 1522 -856 1778 -856 
Q 2344 -856 2625 -561 
Q 2906 -266 2906 331 
L 2906 616 
Q 2728 306 2450 153 
Q 2172 0 1784 0 
Q 1141 0 747 490 
Q 353 981 353 1791 
Q 353 2603 747 3093 
Q 1141 3584 1784 3584 
Q 2172 3584 2450 3431 
Q 2728 3278 2906 2969 
L 2906 3500 
L 3481 3500 
L 3481 434 
z
" transform="scale(0.015625)"/>
     </defs>
     <use xlink:href="#DejaVuSans-2a"/>
     <use xlink:href="#DejaVuSans-55" transform="translate(77.484375 0)"/>
     <use xlink:href="#DejaVuSans-52" transform="translate(116.390625 0)"/>
     <use xlink:href="#DejaVuSans-5a" transform="translate(177.578125 0)"/>
     <use xlink:href="#DejaVuSans-57" transform="translate(259.359375 0)"/>
     <use xlink:href="#DejaVuSans-4b" transform="translate(298.5625 0)"/>
     <use xlink:href="#DejaVuSans-3" transform="translate(361.9375 0)"/>
     <use xlink:href="#DejaVuSans-59" transform="translate(393.71875 0)"/>
     <use xlink:href="#DejaVuSans-56" transform="translate(452.90625 0)"/>
     <use xlink:href="#DejaVuSans-11" transform="translate(505 0)"/>
     <use xlink:href="#DejaVuSans-3" transform="translate(536.78125 0)"/>
     <use xlink:href="#DejaVuSans-44" transform="translate(568.5625 0)"/>
     <use xlink:href="#DejaVuSans-3" transform="translate(629.84375 0)"/>
     <use xlink:href="#DejaVuSans-47" transform="translate(661.625 0)"/>
     <use xlink:href="#DejaVuSans-48" transform="translate(725.109375 0)"/>
     <use xlink:href="#DejaVuSans-53" transform="translate(786.640625 0)"/>
     <use xlink:href="#DejaVuSans-4f" transform="translate(850.125 0)"/>
     <use xlink:href="#DejaVuSans-48" transform="translate(877.90625 0)"/>
     <use xlink:href="#DejaVuSans-57" transform="translate(939.4375 0)"/>
     <use xlink:href="#DejaVuSans-4c" transform="translate(978.640625 0)"/>
     <use xlink:href="#DejaVuSans-51" transform="translate(1006.421875 0)"/>
     <use xlink:href="#DejaVuSans-4a" transform="translate(1069.796875 0)"/>
     <use xlink:href="#DejaVuSans-3" transform="translate(1133.28125 0)"/>
     <use xlink:href="#DejaVuSans-51" transform="translate(1165.0625 0)"/>
     <use xlink:href="#DejaVuSans-58" transform="translate(1228.4375 0)"/>
     <use xlink:href="#DejaVuSans-57" transform="translate(1291.8125 0)"/>
     <use xlink:href="#DejaVuSans-55" transform="translate(1331.015625 0)"/>
     <use xlink:href="#DejaVuSans-4c" transform="translate(1372.125 0)"/>
     <use xlink:href="#DejaVuSans-48" transform="translate(1399.90625 0)"/>
     <use xlink:href="#DejaVuSans-51" transform="translate(1461.4375 0)"/>
     <use xlink:href="#DejaVuSans-57" transform="translate(1524.8125 0)"/>
    </g>
   </g>
   <g id="legend_1">
    <g id="line2d_31">
     <path d="M 256.646697 34.221484 
L 264.146697 34.221484 
L 271.646697 34.221484 
" style="fill: none; stroke: #0d6e6b; stroke-width: 2.2; stroke-linecap: square"/>
    </g>
    <g id="text_18">
     <!-- nutrient -->
     <g transform="translate(277.646697 36.846484) scale(0.075 -0.075)">
      <use xlink:href="#DejaVuSans-51"/>
      <use xlink:href="#DejaVuSans-58" transform="translate(63.375 0)"/>
      <use xlink:href="#DejaVuSans-57" transform="translate(126.75 0)"/>
      <use xlink:href="#DejaVuSans-55" transform="translate(165.953125 0)"/>
      <use xlink:href="#DejaVuSans-4c" transform="translate(207.0625 0)"/>
      <use xlink:href="#DejaVuSans-48" transform="translate(234.84375 0)"/>
      <use xlink:href="#DejaVuSans-51" transform="translate(296.375 0)"/>
      <use xlink:href="#DejaVuSans-57" transform="translate(359.75 0)"/>
     </g>
    </g>
    <g id="line2d_32">
     <path d="M 256.646697 45.47207 
L 264.146697 45.47207 
L 271.646697 45.47207 
" style="fill: none; stroke: #a5620f; stroke-width: 2.2; stroke-linecap: square"/>
    </g>
    <g id="text_19">
     <!-- volume -->
     <g transform="translate(277.646697 48.09707) scale(0.075 -0.075)">
      <use xlink:href="#DejaVuSans-59"/>
      <use xlink:href="#DejaVuSans-52" transform="translate(59.1875 0)"/>
      <use xlink:href="#DejaVuSans-4f" transform="translate(120.375 0)"/>
      <use xlink:href="#DejaVuSans-58" transform="translate(148.15625 0)"/>
      <use xlink:href="#DejaVuSans-50" transform="translate(211.53125 0)"/>
      <use xlink:href="#DejaVuSans-48" transform="translate(308.9375 0)"/>
     </g>
    </g>
   </g>
  </g>
  <g id="axes_2">
   <g id="patch_5">
    <path d="M 359.209091 210.2 
L 628.636364 210.2 
L 628.636364 24.397656 
L 359.209091 24.397656 
z
" style="fill: #ffffff"/>
   </g>
   <g id="matplotlib.axis_3">
    <g id="xtick_9">
     <g id="line2d_33">
      <path d="M 371.455785 210.2 
L 371.455785 24.397656 
" clip-path="url(#p53a301522e)" style="fill: none; stroke: #b0b0b0; stroke-opacity: 0.15; stroke-width: 0.8; stroke-linecap: square"/>
     </g>
     <g id="line2d_34">
      <g>
       <use xlink:href="#mfb35ace907" x="371.455785" y="210.2" style="stroke: #000000; stroke-width: 0.8"/>
      </g>
     </g>
     <g id="text_20">
      <!-- 0.0 -->
      <g transform="translate(363.504223 224.797656) scale(0.1 -0.1)">
       <use xlink:href="#DejaVuSans-13"/>
       <use xlink:href="#DejaVuSans-11" transform="translate(63.625 0)"/>
       <use xlink:href="#DejaVuSans-13" transform="translate(95.40625 0)"/>
      </g>
     </g>
    </g>
    <g id="xtick_10">
     <g id="line2d_35">
      <path d="M 405.47438 210.2 
L 405.47438 24.397656 
" clip-path="url(#p53a301522e)" style="fill: none; stroke: #b0b0b0; stroke-opacity: 0.15; stroke-width: 0.8; stroke-linecap: square"/>
     </g>
     <g id="line2d_36">
      <g>
       <use xlink:href="#mfb35ace907" x="405.47438" y="210.2" style="stroke: #000000; stroke-width: 0.8"/>
      </g>
     </g>
     <g id="text_21">
      <!-- 2.5 -->
      <g transform="translate(397.522818 224.797656) scale(0.1 -0.1)">
       <use xlink:href="#DejaVuSans-15"/>
       <use xlink:href="#DejaVuSans-11" transform="translate(63.625 0)"/>
       <use xlink:href="#DejaVuSans-18" transform="translate(95.40625 0)"/>
      </g>
     </g>
    </g>
    <g id="xtick_11">
     <g id="line2d_37">
      <path d="M 439.492975 210.2 
L 439.492975 24.397656 
" clip-path="url(#p53a301522e)" style="fill: none; stroke: #b0b0b0; stroke-opacity: 0.15; stroke-width: 0.8; stroke-linecap: square"/>
     </g>
     <g id="line2d_38">
      <g>
       <use xlink:href="#mfb35ace907" x="439.492975" y="210.2" style="stroke: #000000; stroke-width: 0.8"/>
      </g>
     </g>
     <g id="text_22">
      <!-- 5.0 -->
      <g transform="translate(431.541413 224.797656) scale(0.1 -0.1)">
       <use xlink:href="#DejaVuSans-18"/>
       <use xlink:href="#DejaVuSans-11" transform="translate(63.625 0)"/>
       <use xlink:href="#DejaVuSans-13" transform="translate(95.40625 0)"/>
      </g>
     </g>
    </g>
    <g id="xtick_12">
     <g id="line2d_39">
      <path d="M 473.51157 210.2 
L 473.51157 24.397656 
" clip-path="url(#p53a301522e)" style="fill: none; stroke: #b0b0b0; stroke-opacity: 0.15; stroke-width: 0.8; stroke-linecap: square"/>
     </g>
     <g id="line2d_40">
      <g>
       <use xlink:href="#mfb35ace907" x="473.51157" y="210.2" style="stroke: #000000; stroke-width: 0.8"/>
      </g>
     </g>
     <g id="text_23">
      <!-- 7.5 -->
      <g transform="translate(465.560008 224.797656) scale(0.1 -0.1)">
       <use xlink:href="#DejaVuSans-1a"/>
       <use xlink:href="#DejaVuSans-11" transform="translate(63.625 0)"/>
       <use xlink:href="#DejaVuSans-18" transform="translate(95.40625 0)"/>
      </g>
     </g>
    </g>
    <g id="xtick_13">
     <g id="line2d_41">
      <path d="M 507.530165 210.2 
L 507.530165 24.397656 
" clip-path="url(#p53a301522e)" style="fill: none; stroke: #b0b0b0; stroke-opacity: 0.15; stroke-width: 0.8; stroke-linecap: square"/>
     </g>
     <g id="line2d_42">
      <g>
       <use xlink:href="#mfb35ace907" x="507.530165" y="210.2" style="stroke: #000000; stroke-width: 0.8"/>
      </g>
     </g>
     <g id="text_24">
      <!-- 10.0 -->
      <g transform="translate(496.397353 224.797656) scale(0.1 -0.1)">
       <use xlink:href="#DejaVuSans-14"/>
       <use xlink:href="#DejaVuSans-13" transform="translate(63.625 0)"/>
       <use xlink:href="#DejaVuSans-11" transform="translate(127.25 0)"/>
       <use xlink:href="#DejaVuSans-13" transform="translate(159.03125 0)"/>
      </g>
     </g>
    </g>
    <g id="xtick_14">
     <g id="line2d_43">
      <path d="M 541.54876 210.2 
L 541.54876 24.397656 
" clip-path="url(#p53a301522e)" style="fill: none; stroke: #b0b0b0; stroke-opacity: 0.15; stroke-width: 0.8; stroke-linecap: square"/>
     </g>
     <g id="line2d_44">
      <g>
       <use xlink:href="#mfb35ace907" x="541.54876" y="210.2" style="stroke: #000000; stroke-width: 0.8"/>
      </g>
     </g>
     <g id="text_25">
      <!-- 12.5 -->
      <g transform="translate(530.415948 224.797656) scale(0.1 -0.1)">
       <use xlink:href="#DejaVuSans-14"/>
       <use xlink:href="#DejaVuSans-15" transform="translate(63.625 0)"/>
       <use xlink:href="#DejaVuSans-11" transform="translate(127.25 0)"/>
       <use xlink:href="#DejaVuSans-18" transform="translate(159.03125 0)"/>
      </g>
     </g>
    </g>
    <g id="xtick_15">
     <g id="line2d_45">
      <path d="M 575.567355 210.2 
L 575.567355 24.397656 
" clip-path="url(#p53a301522e)" style="fill: none; stroke: #b0b0b0; stroke-opacity: 0.15; stroke-width: 0.8; stroke-linecap: square"/>
     </g>
     <g id="line2d_46">
      <g>
       <use xlink:href="#mfb35ace907" x="575.567355" y="210.2" style="stroke: #000000; stroke-width: 0.8"/>
      </g>
     </g>
     <g id="text_26">
      <!-- 15.0 -->
      <g transform="translate(564.434543 224.797656) scale(0.1 -0.1)">
       <use xlink:href="#DejaVuSans-14"/>
       <use xlink:href="#DejaVuSans-18" transform="translate(63.625 0)"/>
       <use xlink:href="#DejaVuSans-11" transform="translate(127.25 0)"/>
       <use xlink:href="#DejaVuSans-13" transform="translate(159.03125 0)"/>
      </g>
     </g>
    </g>
    <g id="xtick_16">
     <g id="line2d_47">
      <path d="M 609.58595 210.2 
L 609.58595 24.397656 
" clip-path="url(#p53a301522e)" style="fill: none; stroke: #b0b0b0; stroke-opacity: 0.15; stroke-width: 0.8; stroke-linecap: square"/>
     </g>
     <g id="line2d_48">
      <g>
       <use xlink:href="#mfb35ace907" x="609.58595" y="210.2" style="stroke: #000000; stroke-width: 0.8"/>
      </g>
     </g>
     <g id="text_27">
      <!-- 17.5 -->
      <g transform="translate(598.453138 224.797656) scale(0.1 -0.1)">
       <use xlink:href="#DejaVuSans-14"/>
       <use xlink:href="#DejaVuSans-1a" transform="translate(63.625 0)"/>
       <use xlink:href="#DejaVuSans-11" transform="translate(127.25 0)"/>
       <use xlink:href="#DejaVuSans-18" transform="translate(159.03125 0)"/>
      </g>
     </g>
    </g>
    <g id="text_28">
     <!-- time -->
     <g transform="translate(482.626634 238.798437) scale(0.1 -0.1)">
      <use xlink:href="#DejaVuSans-57"/>
      <use xlink:href="#DejaVuSans-4c" transform="translate(39.203125 0)"/>
      <use xlink:href="#DejaVuSans-50" transform="translate(66.984375 0)"/>
      <use xlink:href="#DejaVuSans-48" transform="translate(164.390625 0)"/>
     </g>
    </g>
   </g>
   <g id="matplotlib.axis_4">
    <g id="ytick_7">
     <g id="line2d_49">
      <path d="M 359.209091 188.81105 
L 628.636364 188.81105 
" clip-path="url(#p53a301522e)" style="fill: none; stroke: #b0b0b0; stroke-opacity: 0.15; stroke-width: 0.8; stroke-linecap: square"/>
     </g>
     <g id="line2d_50">
      <g>
       <use xlink:href="#ma6e34a7822" x="359.209091" y="188.81105" style="stroke: #000000; stroke-width: 0.8"/>
      </g>
     </g>
     <g id="text_29">
      <!-- 38 -->
      <g transform="translate(339.484091 192.609878) scale(0.1 -0.1)">
       <defs>
        <path id="DejaVuSans-16" d="M 2597 2516 
Q 3050 2419 3304 2112 
Q 3559 1806 3559 1356 
Q 3559 666 3084 287 
Q 2609 -91 1734 -91 
Q 1441 -91 1130 -33 
Q 819 25 488 141 
L 488 750 
Q 750 597 1062 519 
Q 1375 441 1716 441 
Q 2309 441 2620 675 
Q 2931 909 2931 1356 
Q 2931 1769 2642 2001 
Q 2353 2234 1838 2234 
L 1294 2234 
L 1294 2753 
L 1863 2753 
Q 2328 2753 2575 2939 
Q 2822 3125 2822 3475 
Q 2822 3834 2567 4026 
Q 2313 4219 1838 4219 
Q 1578 4219 1281 4162 
Q 984 4106 628 3988 
L 628 4550 
Q 988 4650 1302 4700 
Q 1616 4750 1894 4750 
Q 2613 4750 3031 4423 
Q 3450 4097 3450 3541 
Q 3450 3153 3228 2886 
Q 3006 2619 2597 2516 
z
" transform="scale(0.015625)"/>
       </defs>
       <use xlink:href="#DejaVuSans-16"/>
       <use xlink:href="#DejaVuSans-1b" transform="translate(63.625 0)"/>
      </g>
     </g>
    </g>
    <g id="ytick_8">
     <g id="line2d_51">
      <path d="M 359.209091 162.924273 
L 628.636364 162.924273 
" clip-path="url(#p53a301522e)" style="fill: none; stroke: #b0b0b0; stroke-opacity: 0.15; stroke-width: 0.8; stroke-linecap: square"/>
     </g>
     <g id="line2d_52">
      <g>
       <use xlink:href="#ma6e34a7822" x="359.209091" y="162.924273" style="stroke: #000000; stroke-width: 0.8"/>
      </g>
     </g>
     <g id="text_30">
      <!-- 40 -->
      <g transform="translate(339.484091 166.723101) scale(0.1 -0.1)">
       <use xlink:href="#DejaVuSans-17"/>
       <use xlink:href="#DejaVuSans-13" transform="translate(63.625 0)"/>
      </g>
     </g>
    </g>
    <g id="ytick_9">
     <g id="line2d_53">
      <path d="M 359.209091 137.037496 
L 628.636364 137.037496 
" clip-path="url(#p53a301522e)" style="fill: none; stroke: #b0b0b0; stroke-opacity: 0.15; stroke-width: 0.8; stroke-linecap: square"/>
     </g>
     <g id="line2d_54">
      <g>
       <use xlink:href="#ma6e34a7822" x="359.209091" y="137.037496" style="stroke: #000000; stroke-width: 0.8"/>
      </g>
     </g>
     <g id="text_31">
      <!-- 42 -->
      <g transform="translate(339.484091 140.836324) scale(0.1 -0.1)">
       <use xlink:href="#DejaVuSans-17"/>
       <use xlink:href="#DejaVuSans-15" transform="translate(63.625 0)"/>
      </g>
     </g>
    </g>
    <g id="ytick_10">
     <g id="line2d_55">
      <path d="M 359.209091 111.150719 
L 628.636364 111.150719 
" clip-path="url(#p53a301522e)" style="fill: none; stroke: #b0b0b0; stroke-opacity: 0.15; stroke-width: 0.8; stroke-linecap: square"/>
     </g>
     <g id="line2d_56">
      <g>
       <use xlink:href="#ma6e34a7822" x="359.209091" y="111.150719" style="stroke: #000000; stroke-width: 0.8"/>
      </g>
     </g>
     <g id="text_32">
      <!-- 44 -->
      <g transform="translate(339.484091 114.949547) scale(0.1 -0.1)">
       <use xlink:href="#DejaVuSans-17"/>
       <use xlink:href="#DejaVuSans-17" transform="translate(63.625 0)"/>
      </g>
     </g>
    </g>
    <g id="ytick_11">
     <g id="line2d_57">
      <path d="M 359.209091 85.263941 
L 628.636364 85.263941 
" clip-path="url(#p53a301522e)" style="fill: none; stroke: #b0b0b0; stroke-opacity: 0.15; stroke-width: 0.8; stroke-linecap: square"/>
     </g>
     <g id="line2d_58">
      <g>
       <use xlink:href="#ma6e34a7822" x="359.209091" y="85.263941" style="stroke: #000000; stroke-width: 0.8"/>
      </g>
     </g>
     <g id="text_33">
      <!-- 46 -->
      <g transform="translate(339.484091 89.062769) scale(0.1 -0.1)">
       <use xlink:href="#DejaVuSans-17"/>
       <use xlink:href="#DejaVuSans-19" transform="translate(63.625 0)"/>
      </g>
     </g>
    </g>
    <g id="ytick_12">
     <g id="line2d_59">
      <path d="M 359.209091 59.377164 
L 628.636364 59.377164 
" clip-path="url(#p53a301522e)" style="fill: none; stroke: #b0b0b0; stroke-opacity: 0.15; stroke-width: 0.8; stroke-linecap: square"/>
     </g>
     <g id="line2d_60">
      <g>
       <use xlink:href="#ma6e34a7822" x="359.209091" y="59.377164" style="stroke: #000000; stroke-width: 0.8"/>
      </g>
     </g>
     <g id="text_34">
      <!-- 48 -->
      <g transform="translate(339.484091 63.175992) scale(0.1 -0.1)">
       <use xlink:href="#DejaVuSans-17"/>
       <use xlink:href="#DejaVuSans-1b" transform="translate(63.625 0)"/>
      </g>
     </g>
    </g>
    <g id="ytick_13">
     <g id="line2d_61">
      <path d="M 359.209091 33.490387 
L 628.636364 33.490387 
" clip-path="url(#p53a301522e)" style="fill: none; stroke: #b0b0b0; stroke-opacity: 0.15; stroke-width: 0.8; stroke-linecap: square"/>
     </g>
     <g id="line2d_62">
      <g>
       <use xlink:href="#ma6e34a7822" x="359.209091" y="33.490387" style="stroke: #000000; stroke-width: 0.8"/>
      </g>
     </g>
     <g id="text_35">
      <!-- 50 -->
      <g transform="translate(339.484091 37.289215) scale(0.1 -0.1)">
       <use xlink:href="#DejaVuSans-18"/>
       <use xlink:href="#DejaVuSans-13" transform="translate(63.625 0)"/>
      </g>
     </g>
    </g>
    <g id="text_36">
     <!-- temperature °C -->
     <g transform="translate(333.081747 156.307422) rotate(-90) scale(0.1 -0.1)">
      <defs>
       <path id="DejaVuSans-72" d="M 1600 4347 
Q 1350 4347 1178 4173 
Q 1006 4000 1006 3750 
Q 1006 3503 1178 3333 
Q 1350 3163 1600 3163 
Q 1850 3163 2022 3333 
Q 2194 3503 2194 3750 
Q 2194 3997 2020 4172 
Q 1847 4347 1600 4347 
z
M 1600 4750 
Q 1800 4750 1984 4673 
Q 2169 4597 2303 4453 
Q 2447 4313 2519 4134 
Q 2591 3956 2591 3750 
Q 2591 3338 2302 3052 
Q 2013 2766 1594 2766 
Q 1172 2766 890 3047 
Q 609 3328 609 3750 
Q 609 4169 896 4459 
Q 1184 4750 1600 4750 
z
" transform="scale(0.015625)"/>
       <path id="DejaVuSans-26" d="M 4122 4306 
L 4122 3641 
Q 3803 3938 3442 4084 
Q 3081 4231 2675 4231 
Q 1875 4231 1450 3742 
Q 1025 3253 1025 2328 
Q 1025 1406 1450 917 
Q 1875 428 2675 428 
Q 3081 428 3442 575 
Q 3803 722 4122 1019 
L 4122 359 
Q 3791 134 3420 21 
Q 3050 -91 2638 -91 
Q 1578 -91 968 557 
Q 359 1206 359 2328 
Q 359 3453 968 4101 
Q 1578 4750 2638 4750 
Q 3056 4750 3426 4639 
Q 3797 4528 4122 4306 
z
" transform="scale(0.015625)"/>
      </defs>
      <use xlink:href="#DejaVuSans-57"/>
      <use xlink:href="#DejaVuSans-48" transform="translate(39.203125 0)"/>
      <use xlink:href="#DejaVuSans-50" transform="translate(100.734375 0)"/>
      <use xlink:href="#DejaVuSans-53" transform="translate(198.140625 0)"/>
      <use xlink:href="#DejaVuSans-48" transform="translate(261.625 0)"/>
      <use xlink:href="#DejaVuSans-55" transform="translate(323.15625 0)"/>
      <use xlink:href="#DejaVuSans-44" transform="translate(364.265625 0)"/>
      <use xlink:href="#DejaVuSans-57" transform="translate(425.546875 0)"/>
      <use xlink:href="#DejaVuSans-58" transform="translate(464.75 0)"/>
      <use xlink:href="#DejaVuSans-55" transform="translate(528.125 0)"/>
      <use xlink:href="#DejaVuSans-48" transform="translate(567.03125 0)"/>
      <use xlink:href="#DejaVuSans-3" transform="translate(628.5625 0)"/>
      <use xlink:href="#DejaVuSans-72" transform="translate(660.34375 0)"/>
      <use xlink:href="#DejaVuSans-26" transform="translate(710.34375 0)"/>
     </g>
    </g>
   </g>
   <g id="line2d_63">
    <path d="M 371.455785 201.754439 
L 568.763636 32.843217 
L 616.389669 32.843217 
L 616.389669 32.843217 
" clip-path="url(#p53a301522e)" style="fill: none; stroke: #0d6e6b; stroke-width: 2.2; stroke-linecap: square"/>
   </g>
   <g id="patch_6">
    <path d="M 359.209091 210.2 
L 359.209091 24.397656 
" style="fill: none; stroke: #000000; stroke-width: 0.8; stroke-linejoin: miter; stroke-linecap: square"/>
   </g>
   <g id="patch_7">
    <path d="M 359.209091 210.2 
L 628.636364 210.2 
" style="fill: none; stroke: #000000; stroke-width: 0.8; stroke-linejoin: miter; stroke-linecap: square"/>
   </g>
   <g id="text_37">
    <!-- Thermal-stress viability cliff -->
    <g style="fill: #16211f" transform="translate(424.908665 18.397656) scale(0.1 -0.1)">
     <defs>
      <path id="DejaVuSans-37" d="M -19 4666 
L 3928 4666 
L 3928 4134 
L 2272 4134 
L 2272 0 
L 1638 0 
L 1638 4134 
L -19 4134 
L -19 4666 
z
" transform="scale(0.015625)"/>
      <path id="DejaVuSans-10" d="M 313 2009 
L 1997 2009 
L 1997 1497 
L 313 1497 
L 313 2009 
z
" transform="scale(0.015625)"/>
      <path id="DejaVuSans-45" d="M 3116 1747 
Q 3116 2381 2855 2742 
Q 2594 3103 2138 3103 
Q 1681 3103 1420 2742 
Q 1159 2381 1159 1747 
Q 1159 1113 1420 752 
Q 1681 391 2138 391 
Q 2594 391 2855 752 
Q 3116 1113 3116 1747 
z
M 1159 2969 
Q 1341 3281 1617 3432 
Q 1894 3584 2278 3584 
Q 2916 3584 3314 3078 
Q 3713 2572 3713 1747 
Q 3713 922 3314 415 
Q 2916 -91 2278 -91 
Q 1894 -91 1617 61 
Q 1341 213 1159 525 
L 1159 0 
L 581 0 
L 581 4863 
L 1159 4863 
L 1159 2969 
z
" transform="scale(0.015625)"/>
      <path id="DejaVuSans-5c" d="M 2059 -325 
Q 1816 -950 1584 -1140 
Q 1353 -1331 966 -1331 
L 506 -1331 
L 506 -850 
L 844 -850 
Q 1081 -850 1212 -737 
Q 1344 -625 1503 -206 
L 1606 56 
L 191 3500 
L 800 3500 
L 1894 763 
L 2988 3500 
L 3597 3500 
L 2059 -325 
z
" transform="scale(0.015625)"/>
      <path id="DejaVuSans-46" d="M 3122 3366 
L 3122 2828 
Q 2878 2963 2633 3030 
Q 2388 3097 2138 3097 
Q 1578 3097 1268 2742 
Q 959 2388 959 1747 
Q 959 1106 1268 751 
Q 1578 397 2138 397 
Q 2388 397 2633 464 
Q 2878 531 3122 666 
L 3122 134 
Q 2881 22 2623 -34 
Q 2366 -91 2075 -91 
Q 1284 -91 818 406 
Q 353 903 353 1747 
Q 353 2603 823 3093 
Q 1294 3584 2113 3584 
Q 2378 3584 2631 3529 
Q 2884 3475 3122 3366 
z
" transform="scale(0.015625)"/>
      <path id="DejaVuSans-13ae" d="M 4531 4863 
L 4531 4384 
L 3981 4384 
Q 3672 4384 3551 4259 
Q 3431 4134 3431 3809 
L 3431 3500 
L 4378 3500 
L 4378 3053 
L 3431 3053 
L 3431 0 
L 2853 0 
L 2853 3053 
L 1275 3053 
L 1275 0 
L 697 0 
L 697 3053 
L 147 3053 
L 147 3500 
L 697 3500 
L 697 3744 
Q 697 4328 969 4595 
Q 1241 4863 1831 4863 
L 2375 4863 
L 2375 4384 
L 1825 4384 
Q 1516 4384 1394 4259 
Q 1275 4134 1275 3809 
L 1275 3500 
L 2853 3500 
L 2853 3744 
Q 2853 4328 3125 4595 
Q 3397 4863 3988 4863 
L 4531 4863 
z
" transform="scale(0.015625)"/>
     </defs>
     <use xlink:href="#DejaVuSans-37"/>
     <use xlink:href="#DejaVuSans-4b" transform="translate(61.078125 0)"/>
     <use xlink:href="#DejaVuSans-48" transform="translate(124.453125 0)"/>
     <use xlink:href="#DejaVuSans-55" transform="translate(185.984375 0)"/>
     <use xlink:href="#DejaVuSans-50" transform="translate(225.34375 0)"/>
     <use xlink:href="#DejaVuSans-44" transform="translate(322.75 0)"/>
     <use xlink:href="#DejaVuSans-4f" transform="translate(384.03125 0)"/>
     <use xlink:href="#DejaVuSans-10" transform="translate(411.8125 0)"/>
     <use xlink:href="#DejaVuSans-56" transform="translate(447.890625 0)"/>
     <use xlink:href="#DejaVuSans-57" transform="translate(499.984375 0)"/>
     <use xlink:href="#DejaVuSans-55" transform="translate(539.1875 0)"/>
     <use xlink:href="#DejaVuSans-48" transform="translate(578.09375 0)"/>
     <use xlink:href="#DejaVuSans-56" transform="translate(639.625 0)"/>
     <use xlink:href="#DejaVuSans-56" transform="translate(691.71875 0)"/>
     <use xlink:href="#DejaVuSans-3" transform="translate(743.8125 0)"/>
     <use xlink:href="#DejaVuSans-59" transform="translate(775.59375 0)"/>
     <use xlink:href="#DejaVuSans-4c" transform="translate(834.78125 0)"/>
     <use xlink:href="#DejaVuSans-44" transform="translate(862.5625 0)"/>
     <use xlink:href="#DejaVuSans-45" transform="translate(923.84375 0)"/>
     <use xlink:href="#DejaVuSans-4c" transform="translate(987.328125 0)"/>
     <use xlink:href="#DejaVuSans-4f" transform="translate(1015.109375 0)"/>
     <use xlink:href="#DejaVuSans-4c" transform="translate(1042.890625 0)"/>
     <use xlink:href="#DejaVuSans-57" transform="translate(1070.671875 0)"/>
     <use xlink:href="#DejaVuSans-5c" transform="translate(1109.875 0)"/>
     <use xlink:href="#DejaVuSans-3" transform="translate(1169.0625 0)"/>
     <use xlink:href="#DejaVuSans-46" transform="translate(1200.84375 0)"/>
     <use xlink:href="#DejaVuSans-4f" transform="translate(1255.828125 0)"/>
     <use xlink:href="#DejaVuSans-4c" transform="translate(1283.609375 0)"/>
     <use xlink:href="#DejaVuSans-13ae" transform="translate(1311.390625 0)"/>
    </g>
   </g>
   <g id="legend_2">
    <g id="line2d_64">
     <path d="M 365.959091 34.221484 
L 373.459091 34.221484 
L 380.959091 34.221484 
" style="fill: none; stroke: #0d6e6b; stroke-width: 2.2; stroke-linecap: square"/>
    </g>
    <g id="text_38">
     <!-- temperature -->
     <g transform="translate(386.959091 36.846484) scale(0.075 -0.075)">
      <use xlink:href="#DejaVuSans-57"/>
      <use xlink:href="#DejaVuSans-48" transform="translate(39.203125 0)"/>
      <use xlink:href="#DejaVuSans-50" transform="translate(100.734375 0)"/>
      <use xlink:href="#DejaVuSans-53" transform="translate(198.140625 0)"/>
      <use xlink:href="#DejaVuSans-48" transform="translate(261.625 0)"/>
      <use xlink:href="#DejaVuSans-55" transform="translate(323.15625 0)"/>
      <use xlink:href="#DejaVuSans-44" transform="translate(364.265625 0)"/>
      <use xlink:href="#DejaVuSans-57" transform="translate(425.546875 0)"/>
      <use xlink:href="#DejaVuSans-58" transform="translate(464.75 0)"/>
      <use xlink:href="#DejaVuSans-55" transform="translate(528.125 0)"/>
      <use xlink:href="#DejaVuSans-48" transform="translate(567.03125 0)"/>
     </g>
    </g>
    <g id="line2d_65">
     <path d="M 365.959091 45.47207 
L 373.459091 45.47207 
L 380.959091 45.47207 
" style="fill: none; stroke-dasharray: 8.88,3.84; stroke-dashoffset: 0; stroke: #a5620f; stroke-width: 2.4"/>
    </g>
    <g id="text_39">
     <!-- viability -->
     <g transform="translate(386.959091 48.09707) scale(0.075 -0.075)">
      <use xlink:href="#DejaVuSans-59"/>
      <use xlink:href="#DejaVuSans-4c" transform="translate(59.1875 0)"/>
      <use xlink:href="#DejaVuSans-44" transform="translate(86.96875 0)"/>
      <use xlink:href="#DejaVuSans-45" transform="translate(148.25 0)"/>
      <use xlink:href="#DejaVuSans-4c" transform="translate(211.734375 0)"/>
      <use xlink:href="#DejaVuSans-4f" transform="translate(239.515625 0)"/>
      <use xlink:href="#DejaVuSans-4c" transform="translate(267.296875 0)"/>
      <use xlink:href="#DejaVuSans-57" transform="translate(295.078125 0)"/>
      <use xlink:href="#DejaVuSans-5c" transform="translate(334.28125 0)"/>
     </g>
    </g>
   </g>
  </g>
  <g id="axes_3">
   <g id="matplotlib.axis_5">
    <g id="ytick_14">
     <g id="line2d_66">
      <defs>
       <path id="mb2c507cfab" d="M 0 0 
L 3.5 0 
" style="stroke: #000000; stroke-width: 0.8"/>
      </defs>
      <g>
       <use xlink:href="#mb2c507cfab" x="628.636364" y="201.754439" style="stroke: #000000; stroke-width: 0.8"/>
      </g>
     </g>
     <g id="text_40">
      <!-- 0.0 -->
      <g transform="translate(635.636364 205.553267) scale(0.1 -0.1)">
       <use xlink:href="#DejaVuSans-13"/>
       <use xlink:href="#DejaVuSans-11" transform="translate(63.625 0)"/>
       <use xlink:href="#DejaVuSans-13" transform="translate(95.40625 0)"/>
      </g>
     </g>
    </g>
    <g id="ytick_15">
     <g id="line2d_67">
      <g>
       <use xlink:href="#mb2c507cfab" x="628.636364" y="167.972195" style="stroke: #000000; stroke-width: 0.8"/>
      </g>
     </g>
     <g id="text_41">
      <!-- 0.2 -->
      <g transform="translate(635.636364 171.771023) scale(0.1 -0.1)">
       <use xlink:href="#DejaVuSans-13"/>
       <use xlink:href="#DejaVuSans-11" transform="translate(63.625 0)"/>
       <use xlink:href="#DejaVuSans-15" transform="translate(95.40625 0)"/>
      </g>
     </g>
    </g>
    <g id="ytick_16">
     <g id="line2d_68">
      <g>
       <use xlink:href="#mb2c507cfab" x="628.636364" y="134.18995" style="stroke: #000000; stroke-width: 0.8"/>
      </g>
     </g>
     <g id="text_42">
      <!-- 0.4 -->
      <g transform="translate(635.636364 137.988778) scale(0.1 -0.1)">
       <use xlink:href="#DejaVuSans-13"/>
       <use xlink:href="#DejaVuSans-11" transform="translate(63.625 0)"/>
       <use xlink:href="#DejaVuSans-17" transform="translate(95.40625 0)"/>
      </g>
     </g>
    </g>
    <g id="ytick_17">
     <g id="line2d_69">
      <g>
       <use xlink:href="#mb2c507cfab" x="628.636364" y="100.407706" style="stroke: #000000; stroke-width: 0.8"/>
      </g>
     </g>
     <g id="text_43">
      <!-- 0.6 -->
      <g transform="translate(635.636364 104.206534) scale(0.1 -0.1)">
       <use xlink:href="#DejaVuSans-13"/>
       <use xlink:href="#DejaVuSans-11" transform="translate(63.625 0)"/>
       <use xlink:href="#DejaVuSans-19" transform="translate(95.40625 0)"/>
      </g>
     </g>
    </g>
    <g id="ytick_18">
     <g id="line2d_70">
      <g>
       <use xlink:href="#mb2c507cfab" x="628.636364" y="66.625462" style="stroke: #000000; stroke-width: 0.8"/>
      </g>
     </g>
     <g id="text_44">
      <!-- 0.8 -->
      <g transform="translate(635.636364 70.42429) scale(0.1 -0.1)">
       <use xlink:href="#DejaVuSans-13"/>
       <use xlink:href="#DejaVuSans-11" transform="translate(63.625 0)"/>
       <use xlink:href="#DejaVuSans-1b" transform="translate(95.40625 0)"/>
      </g>
     </g>
    </g>
    <g id="ytick_19">
     <g id="line2d_71">
      <g>
       <use xlink:href="#mb2c507cfab" x="628.636364" y="32.843217" style="stroke: #000000; stroke-width: 0.8"/>
      </g>
     </g>
     <g id="text_45">
      <!-- 1.0 -->
      <g transform="translate(635.636364 36.642045) scale(0.1 -0.1)">
       <use xlink:href="#DejaVuSans-14"/>
       <use xlink:href="#DejaVuSans-11" transform="translate(63.625 0)"/>
       <use xlink:href="#DejaVuSans-13" transform="translate(95.40625 0)"/>
      </g>
     </g>
    </g>
    <g id="text_46">
     <!-- viability -->
     <g transform="translate(663.137926 136.972266) rotate(-90) scale(0.1 -0.1)">
      <use xlink:href="#DejaVuSans-59"/>
      <use xlink:href="#DejaVuSans-4c" transform="translate(59.1875 0)"/>
      <use xlink:href="#DejaVuSans-44" transform="translate(86.96875 0)"/>
      <use xlink:href="#DejaVuSans-45" transform="translate(148.25 0)"/>
      <use xlink:href="#DejaVuSans-4c" transform="translate(211.734375 0)"/>
      <use xlink:href="#DejaVuSans-4f" transform="translate(239.515625 0)"/>
      <use xlink:href="#DejaVuSans-4c" transform="translate(267.296875 0)"/>
      <use xlink:href="#DejaVuSans-57" transform="translate(295.078125 0)"/>
      <use xlink:href="#DejaVuSans-5c" transform="translate(334.28125 0)"/>
     </g>
    </g>
   </g>
   <g id="line2d_72">
    <path d="M 371.455785 32.843217 
L 447.657438 32.843217 
L 449.018182 32.979251 
L 450.378926 33.427713 
L 451.739669 34.196184 
L 453.100413 35.290617 
L 454.461157 36.715189 
L 455.821901 38.472155 
L 457.182645 40.561716 
L 458.543388 42.981901 
L 459.904132 45.728469 
L 461.264876 48.794825 
L 462.62562 52.171966 
L 465.347107 59.810398 
L 468.068595 68.523164 
L 470.790083 78.152402 
L 473.51157 88.506734 
L 477.593802 104.913481 
L 484.397521 132.570459 
L 487.119008 143.04025 
L 489.840496 152.849594 
L 492.561983 161.829411 
L 495.283471 169.854681 
L 498.004959 176.84932 
L 500.726446 182.787407 
L 502.08719 185.3653 
L 503.447934 187.690605 
L 504.808678 189.772462 
L 506.169421 191.622054 
L 507.530165 193.252283 
L 508.890909 194.677415 
L 510.251653 195.912724 
L 511.612397 196.974136 
L 512.97314 197.877882 
L 515.694628 199.276904 
L 518.416116 200.234214 
L 521.137603 200.861927 
L 523.859091 201.255006 
L 527.941322 201.565168 
L 533.384298 201.712458 
L 546.991736 201.7542 
L 616.389669 201.754439 
L 616.389669 201.754439 
" clip-path="url(#p53a301522e)" style="fill: none; stroke-dasharray: 8.88,3.84; stroke-dashoffset: 0; stroke: #a5620f; stroke-width: 2.4"/>
   </g>
   <g id="patch_8">
    <path d="M 359.209091 210.2 
L 359.209091 24.397656 
" style="fill: none; stroke: #000000; stroke-width: 0.8; stroke-linejoin: miter; stroke-linecap: square"/>
   </g>
   <g id="patch_9">
    <path d="M 628.636364 210.2 
L 628.636364 24.397656 
" style="fill: none; stroke: #000000; stroke-width: 0.8; stroke-linejoin: miter; stroke-linecap: square"/>
   </g>
   <g id="patch_10">
    <path d="M 359.209091 210.2 
L 628.636364 210.2 
" style="fill: none; stroke: #000000; stroke-width: 0.8; stroke-linejoin: miter; stroke-linecap: square"/>
   </g>
  </g>
 </g>
 <defs>
  <clipPath id="pe129fa5c9b">
   <rect x="44.890909" y="24.397656" width="269.427273" height="185.802344"/>
  </clipPath>
  <clipPath id="p53a301522e">
   <rect x="359.209091" y="24.397656" width="269.427273" height="185.802344"/>
  </clipPath>
 </defs>
</svg>
